<?xml version="1.0" encoding="utf-8"?>
<!-- Generator: Adobe Illustrator 26.0.1, SVG Export Plug-In . SVG Version: 6.00 Build 0)  -->
<svg version="1.1" id="Layer_1" xmlns="http://www.w3.org/2000/svg" xmlns:xlink="http://www.w3.org/1999/xlink" x="0px" y="0px"
	 viewBox="0 0 16 16" style="enable-background:new 0 0 16 16;" xml:space="preserve">
<g>
	<g>
		<path d="M9.1,15.8c-0.3,0-0.5-0.1-0.7-0.3L2.6,9.9C2.4,9.7,2.3,9.4,2.3,9.2l0-0.4l0.3-0.3l5.7-5.8c0.4-0.4,1-0.4,1.4,0l5.7,5.6
			c0.6,0.6,0.3,1.2,0.1,1.4l0,0l-6,6.1L9.1,15.8C9.1,15.8,9.1,15.8,9.1,15.8z M4.3,9.2L9,13.8L13.7,9L9,4.4L4.3,9.2z M14.3,8.5
			L14.3,8.5L14.3,8.5z"/>
	</g>
	<g>
		<path d="M3.1,10c-0.2,0-0.4-0.1-0.6-0.2c-0.3-0.3-0.3-0.9,0-1.2l8-8.1c0.3-0.3,0.9-0.3,1.2,0c0.3,0.3,0.3,0.9,0,1.2l-8,8.1
			C3.6,9.9,3.3,10,3.1,10z"/>
	</g>
	<g>
		<path d="M1.7,10.7c-0.1,0-1.5,1.5-1.5,2.5c0,1.1,0.7,1.8,1.5,1.8c0.7,0,1.5-0.6,1.5-1.8C3.2,12.1,1.8,10.7,1.7,10.7z"/>
	</g>
</g>
</svg>
