<?xml version="1.0" encoding="utf-8"?>
<!-- Generator: Adobe Illustrator 26.0.1, SVG Export Plug-In . SVG Version: 6.00 Build 0)  -->
<svg version="1.1" id="Layer_1" xmlns="http://www.w3.org/2000/svg" xmlns:xlink="http://www.w3.org/1999/xlink" x="0px" y="0px"
	 viewBox="0 0 16 16" style="enable-background:new 0 0 16 16;" xml:space="preserve">
<g>
	<g>
		<g>
			<path d="M14.8,11.7H1.2c-0.6,0-1-0.4-1-0.9V5.3c0-0.5,0.5-0.9,1-0.9h13.5c0.6,0,1,0.4,1,0.9l0,5.5C15.7,11.2,15.4,11.7,14.8,11.7
				z M1.9,10h12.2l0-3.9H1.9V10z"/>
		</g>
		<g>
			<path d="M10.3,11.4c-0.3,0-0.6-0.3-0.6-0.6V5.4c0-0.3,0.3-0.6,0.6-0.6s0.6,0.3,0.6,0.6v5.4C10.9,11.1,10.7,11.4,10.3,11.4z"/>
		</g>
		<g>
			<path d="M5.6,11.4c-0.3,0-0.6-0.3-0.6-0.6V5.4C5,5,5.3,4.8,5.6,4.8S6.2,5,6.2,5.4v5.4C6.2,11.1,5.9,11.4,5.6,11.4z"/>
		</g>
	</g>
	<g>
		<polygon points="3.2,3.5 1.3,0.2 5,0.2 		"/>
	</g>
	<g>
		<polygon points="15,15.8 11.3,15.8 13.2,12.6 		"/>
	</g>
</g>
</svg>
