<?xml version="1.0" encoding="utf-8"?>
<!-- Generator: Adobe Illustrator 26.0.1, SVG Export Plug-In . SVG Version: 6.00 Build 0)  -->
<svg version="1.1" id="Layer_1" xmlns="http://www.w3.org/2000/svg" xmlns:xlink="http://www.w3.org/1999/xlink" x="0px" y="0px"
	 viewBox="0 0 16 16" style="enable-background:new 0 0 16 16;" xml:space="preserve">
<g>
	<g>
		<path d="M1,8.8h14c0.5,0,0.9-0.4,0.9-0.8c0-0.5-0.4-0.9-0.9-0.9H1C0.5,7.1,0.1,7.5,0.1,8C0.1,8.5,0.5,8.8,1,8.8z"/>
	</g>
	<g>
		<path d="M8,15.8c0.2,0,0.4-0.1,0.6-0.2c0.3-0.3,0.3-0.9,0-1.2L2.2,8l6.4-6.4c0.3-0.3,0.3-0.9,0-1.2s-0.9-0.3-1.2,0l-7,7
			c-0.3,0.3-0.3,0.9,0,1.2l7,7C7.6,15.8,7.8,15.8,8,15.8z"/>
	</g>
</g>
</svg>
