<?xml version="1.0" encoding="utf-8"?>
<!-- Generator: Adobe Illustrator 26.0.1, SVG Export Plug-In . SVG Version: 6.00 Build 0)  -->
<svg version="1.1" id="Layer_1" xmlns="http://www.w3.org/2000/svg" xmlns:xlink="http://www.w3.org/1999/xlink" x="0px" y="0px"
	 viewBox="0 0 16 16" style="enable-background:new 0 0 16 16;" xml:space="preserve">
<g>
	<g>
		<path d="M9.4,11c-1.3,0-2.6-0.6-3.5-1.8C5.6,8.8,5.7,8.3,6.1,8C6.5,7.7,7,7.8,7.3,8.2C8.2,9.4,9.8,9.6,11,8.7
			c0.1-0.1,0.2-0.2,0.3-0.3l2.1-2.1c0.5-0.5,0.8-1.2,0.7-1.9c0-0.7-0.3-1.4-0.8-1.9c-1-1-2.7-1-3.7,0L8.4,3.8
			c-0.3,0.3-0.9,0.3-1.2,0c-0.3-0.3-0.3-0.9,0-1.2l1.2-1.2c1.7-1.7,4.4-1.7,6.1,0c0.8,0.8,1.3,1.9,1.3,3.1s-0.4,2.3-1.2,3.1
			l-2.1,2.1c-0.1,0.1-0.3,0.3-0.5,0.4C11.2,10.7,10.3,11,9.4,11z"/>
	</g>
	<g>
		<path d="M4.5,15.9c-1.1,0-2.2-0.4-3-1.2c-0.8-0.8-1.3-1.9-1.3-3.1c0-1.2,0.4-2.3,1.2-3.1l2.1-2.1C3.6,6.2,3.8,6,4,5.9
			c0.9-0.7,2.1-1,3.2-0.8c1.2,0.2,2.2,0.8,2.9,1.7c0.3,0.4,0.2,0.9-0.2,1.2C9.5,8.3,9,8.2,8.7,7.8C8.3,7.2,7.7,6.9,7,6.8
			C6.3,6.7,5.6,6.8,5,7.3C4.9,7.3,4.8,7.4,4.7,7.5L2.6,9.6c-0.5,0.5-0.8,1.2-0.7,1.9c0,0.7,0.3,1.4,0.8,1.9c1,1,2.7,1,3.7,0l1.2-1.2
			c0.3-0.3,0.9-0.3,1.2,0c0.3,0.3,0.3,0.9,0,1.2l-1.2,1.2C6.7,15.4,5.6,15.9,4.5,15.9z"/>
	</g>
</g>
</svg>
