<?xml version="1.0" encoding="utf-8"?>
<!-- Generator: Adobe Illustrator 26.0.1, SVG Export Plug-In . SVG Version: 6.00 Build 0)  -->
<svg version="1.1" id="Layer_1" xmlns="http://www.w3.org/2000/svg" xmlns:xlink="http://www.w3.org/1999/xlink" x="0px" y="0px"
	 viewBox="0 0 16 16" style="enable-background:new 0 0 16 16;" xml:space="preserve">
<g>
	<g>
		<path d="M15,6.5c-0.5,0-0.8-0.4-0.8-0.9V1.8h-3.8C9.9,1.8,9.5,1.4,9.5,1s0.4-0.9,0.8-0.9H15c0.5,0,0.8,0.4,0.8,0.9v4.7
			C15.9,6.1,15.5,6.5,15,6.5z"/>
	</g>
	<g>
		<path d="M5.7,15.9H1c-0.5,0-0.9-0.4-0.9-0.8v-4.7c0-0.5,0.4-0.8,0.9-0.8s0.9,0.4,0.9,0.8v3.8h3.8c0.5,0,0.9,0.4,0.9,0.8
			S6.1,15.9,5.7,15.9z"/>
	</g>
	<g>
		<path d="M9.6,7.3C9.3,7.3,9.1,7.2,9,7C8.6,6.7,8.6,6.2,9,5.8l5.5-5.5c0.3-0.3,0.9-0.3,1.2,0c0.3,0.3,0.3,0.9,0,1.2L10.2,7
			C10,7.2,9.8,7.3,9.6,7.3z"/>
	</g>
	<g>
		<path d="M1,15.9c-0.2,0-0.4-0.1-0.6-0.2c-0.3-0.3-0.3-0.9,0-1.2L5.8,9C6.2,8.6,6.7,8.6,7,9c0.3,0.3,0.3,0.9,0,1.2l-5.5,5.5
			C1.4,15.8,1.2,15.9,1,15.9z"/>
	</g>
</g>
</svg>
