<?xml version="1.0" encoding="utf-8"?>
<!-- Generator: Adobe Illustrator 26.0.1, SVG Export Plug-In . SVG Version: 6.00 Build 0)  -->
<svg version="1.1" id="Layer_1" xmlns="http://www.w3.org/2000/svg" xmlns:xlink="http://www.w3.org/1999/xlink" x="0px" y="0px"
	 viewBox="0 0 16 16" style="enable-background:new 0 0 16 16;" xml:space="preserve">
<g>
	<g>
		<path d="M6.5,15.1c-0.6,0-1-0.4-1-1v-3.6H1.9c-0.6,0-1-0.4-1-1s0.4-1,1-1h4.6c0.6,0,1,0.4,1,1v4.6C7.5,14.7,7,15.1,6.5,15.1z"/>
	</g>
	<g>
		<path d="M14.1,7.5H9.5c-0.6,0-1-0.4-1-1V1.9c0-0.6,0.4-1,1-1c0.6,0,1,0.4,1,1v3.6h3.6c0.6,0,1,0.4,1,1S14.7,7.5,14.1,7.5z"/>
	</g>
	<g>
		<path d="M9.5,7.5C9.3,7.5,9,7.4,8.8,7.2c-0.4-0.4-0.4-1,0-1.4l5.4-5.4c0.4-0.4,1-0.4,1.4,0s0.4,1,0,1.4l-5.4,5.4
			C10,7.4,9.8,7.5,9.5,7.5z"/>
	</g>
	<g>
		<path d="M1.1,15.9c-0.3,0-0.5-0.1-0.7-0.3c-0.4-0.4-0.4-1,0-1.4l5.4-5.4c0.4-0.4,1-0.4,1.4,0s0.4,1,0,1.4l-5.4,5.4
			C1.6,15.8,1.4,15.9,1.1,15.9z"/>
	</g>
</g>
</svg>
