<?xml version="1.0" encoding="utf-8"?>
<!-- Generator: Adobe Illustrator 26.0.1, SVG Export Plug-In . SVG Version: 6.00 Build 0)  -->
<svg version="1.1" id="Layer_1" xmlns="http://www.w3.org/2000/svg" xmlns:xlink="http://www.w3.org/1999/xlink" x="0px" y="0px"
	 viewBox="0 0 16 16" style="enable-background:new 0 0 16 16;" xml:space="preserve">
<g>
	<g>
		<path d="M0.9,7.4h4.2C5.6,7.4,6,7.1,6,6.6S5.6,5.7,5.2,5.7H1.8V2.3c0-0.5-0.4-0.9-0.8-0.9S0.1,1.9,0.1,2.3v4.2
			C0.1,7.1,0.5,7.4,0.9,7.4z"/>
	</g>
	<g>
		<path d="M8.7,15.2c0.8,0,1.6-0.1,2.4-0.4c3.7-1.3,5.7-5.5,4.4-9.2c-0.6-1.8-2-3.3-3.7-4.1c-1.7-0.8-3.7-0.9-5.5-0.3
			c-1,0.4-1.9,0.9-2.7,1.7L0.4,6C0,6.3,0,6.8,0.3,7.2c0.3,0.3,0.9,0.4,1.2,0l3.3-3.1c0.6-0.6,1.3-1,2.1-1.3C8.3,2.3,9.8,2.4,11.1,3
			c1.3,0.6,2.3,1.7,2.8,3.1c1,2.9-0.5,6-3.4,7c-1.4,0.5-2.9,0.4-4.2-0.2C5,12.3,4,11.2,3.5,9.8C3.4,9.4,2.9,9.2,2.4,9.3
			C2,9.5,1.8,10,1.9,10.4c0.6,1.8,2,3.3,3.7,4.1C6.6,15,7.6,15.2,8.7,15.2z"/>
	</g>
</g>
</svg>
