<?xml version="1.0" encoding="utf-8"?>
<!-- Generator: Adobe Illustrator 26.0.1, SVG Export Plug-In . SVG Version: 6.00 Build 0)  -->
<svg version="1.1" id="Layer_1" xmlns="http://www.w3.org/2000/svg" xmlns:xlink="http://www.w3.org/1999/xlink" x="0px" y="0px"
	 viewBox="0 0 16 16" style="enable-background:new 0 0 16 16;" xml:space="preserve">
<g>
	<g>
		<path d="M15.1,7.4h-4.2c-0.5,0-0.8-0.4-0.8-0.9s0.4-0.9,0.8-0.9h3.4V2.3c0-0.5,0.4-0.9,0.8-0.9s0.8,0.4,0.8,0.9v4.2
			C15.9,7.1,15.5,7.4,15.1,7.4z"/>
	</g>
	<g>
		<path d="M7.3,15.2c-0.8,0-1.6-0.1-2.4-0.4c-3.7-1.3-5.7-5.5-4.4-9.2c0.6-1.8,2-3.3,3.7-4.1c1.7-0.8,3.7-0.9,5.5-0.3
			c1,0.4,1.9,0.9,2.7,1.7L15.6,6c0.3,0.3,0.4,0.9,0,1.2c-0.3,0.3-0.9,0.4-1.2,0l-3.3-3.1c-0.6-0.6-1.3-1-2.1-1.3
			C7.7,2.3,6.2,2.4,4.9,3C3.6,3.7,2.6,4.8,2.1,6.2c-1,2.9,0.5,6,3.4,7c1.4,0.5,2.9,0.4,4.2-0.2c1.3-0.6,2.3-1.7,2.8-3.1
			c0.2-0.4,0.6-0.7,1.1-0.5c0.4,0.2,0.7,0.6,0.5,1.1c-0.6,1.8-2,3.3-3.7,4.1C9.4,15,8.4,15.2,7.3,15.2z"/>
	</g>
</g>
</svg>
