<?xml version="1.0" encoding="utf-8"?>
<!-- Generator: Adobe Illustrator 26.0.1, SVG Export Plug-In . SVG Version: 6.00 Build 0)  -->
<svg version="1.1" id="Layer_1" xmlns="http://www.w3.org/2000/svg" xmlns:xlink="http://www.w3.org/1999/xlink" x="0px" y="0px"
	 viewBox="0 0 16 16" style="enable-background:new 0 0 16 16;" xml:space="preserve">
<g>
	<path d="M11.1,15.8c-0.5,0-0.8-0.4-0.8-0.8v-2.3c0-1.3,1.1-2.4,2.4-2.4H15c0.5,0,0.8,0.4,0.8,0.8S15.5,12,15,12h-2.3
		c-0.4,0-0.7,0.3-0.7,0.7V15C12,15.5,11.6,15.8,11.1,15.8z M4.9,15.8C4.4,15.8,4,15.5,4,15v-2.3C4,12.3,3.7,12,3.3,12H1
		c-0.5,0-0.9-0.4-0.9-0.8s0.4-0.8,0.9-0.8h2.3c1.3,0,2.4,1.1,2.4,2.4V15C5.7,15.5,5.4,15.8,4.9,15.8z M15,5.7h-2.3
		c-1.3,0-2.4-1.1-2.4-2.4V1c0-0.5,0.4-0.9,0.8-0.9S12,0.5,12,1v2.3C12,3.7,12.3,4,12.7,4H15c0.5,0,0.8,0.4,0.8,0.9S15.5,5.7,15,5.7z
		 M3.3,5.7H1c-0.5,0-0.9-0.4-0.9-0.9S0.5,4,1,4h2.3C3.7,4,4,3.7,4,3.3V1c0-0.5,0.4-0.9,0.9-0.9S5.7,0.5,5.7,1v2.3
		C5.7,4.7,4.7,5.7,3.3,5.7z"/>
</g>
</svg>
