<?xml version="1.0" encoding="utf-8"?>
<!-- Generator: Adobe Illustrator 26.0.1, SVG Export Plug-In . SVG Version: 6.00 Build 0)  -->
<svg version="1.1" id="Layer_1" xmlns="http://www.w3.org/2000/svg" xmlns:xlink="http://www.w3.org/1999/xlink" x="0px" y="0px"
	 viewBox="0 0 16 16" style="enable-background:new 0 0 16 16;" xml:space="preserve">
<g>
	<g>
		<path d="M7.2,14.3c-3.9,0-7.1-3.2-7.1-7.1s3.2-7.1,7.1-7.1s7.1,3.2,7.1,7.1S11.1,14.3,7.2,14.3z M7.2,1.8c-3,0-5.4,2.4-5.4,5.4
			s2.4,5.4,5.4,5.4s5.4-2.4,5.4-5.4S10.2,1.8,7.2,1.8z"/>
	</g>
	<g>
		<path d="M15,15.9c-0.2,0-0.4-0.1-0.6-0.2L11,12.2c-0.3-0.3-0.3-0.9,0-1.2c0.3-0.3,0.9-0.3,1.2,0l3.4,3.4c0.3,0.3,0.3,0.9,0,1.2
			C15.5,15.8,15.2,15.9,15,15.9z"/>
	</g>
	<g>
		<path d="M9.6,8.1H4.9C4.4,8.1,4,7.7,4,7.2s0.4-0.9,0.9-0.9h4.7c0.5,0,0.8,0.4,0.8,0.9S10,8.1,9.6,8.1z"/>
	</g>
</g>
</svg>
