<svg id="Layer_1" data-name="Layer 1" xmlns="http://www.w3.org/2000/svg" viewBox="0 0 553.6 607.48"><defs><style>.cls-1{fill:#fff;}</style></defs><circle class="cls-1" cx="171.01" cy="155.33" r="8.25"/><path class="cls-1" d="M179.54,218.07c-25.56,1.39-60.08,7.65-79,26.35,8.44,2.88,17.72,3.59,26.27,6.82A110,110,0,0,1,151.2,264c18,12.43,31.17,29.1,37.46,50.28,4.74,15.94,6.21,32.61,8.23,49.15a409.3,409.3,0,0,0,8.31,46.92c.89,3.8,1.89,7.58,2.94,11.32,7.58,27.13,18.72,53.19,35.08,75.92V690.91H29.2V104.14h214V222.4C222.56,217.25,200.17,217,179.54,218.07Z" transform="translate(-29.2 -92.26)"/><path class="cls-1" d="M582.8,611.22v88.52H537.67q-128.32,0-178.38-38.44-41.48-32.22-48.57-106.67c23.81,11.91,50,19.14,76.69,22.31,55.1,6.53,110.67,5.93,166,4.35-33.9,0-63.6-23.53-86.3-49.8a297.58,297.58,0,0,1-20.57-26.86c-19.66-28.64-32.75-60.51-45.84-92.35q87.87,8.19,130.64,47.86Q582.83,507.95,582.8,611.22Z" transform="translate(-29.2 -92.26)"/><path class="cls-1" d="M582.8,92.26v84.49q0,101-51.41,143.92-46.29,38-151.92,42.31c-4-8.47-8.34-16.83-13-25,6.58-9.36,12.87-18.93,19.71-28.05,25-33.37,52.09-66.61,84.05-93.64,16.95-14.31,38-31.69,61.75-29.23-30.41-3.17-63.78,3.54-91.83,15a195.81,195.81,0,0,0-51.64,31.09c-16.57,13.92-28.68,30.72-41.47,48Q341.94,288,336.86,295a346.8,346.8,0,0,0-27.63-30.36v-7.86Q309.23,158,359.3,124q47.43-31.74,178.39-31.72Z" transform="translate(-29.2 -92.26)"/></svg>