<?xml version="1.0" encoding="utf-8"?>
<!-- Generator: Adobe Illustrator 25.0.0, SVG Export Plug-In . SVG Version: 6.00 Build 0)  -->
<svg version="1.1" id="Layer_1" xmlns="http://www.w3.org/2000/svg" xmlns:xlink="http://www.w3.org/1999/xlink" x="0px" y="0px"
	 viewBox="0 0 612 792" style="enable-background:new 0 0 612 792;" xml:space="preserve">
<style type="text/css">
	.st0{fill:#2C2C28;}
	.st1{fill:#D8C898;}
</style>
<g>
	<circle class="st0" cx="200.21" cy="247.59" r="8.25"/>
	<path class="st1" d="M179.54,218.07c-25.56,1.39-60.08,7.65-79.04,26.35c8.44,2.88,17.72,3.59,26.27,6.82
		c8.62,3.22,16.88,7.5,24.43,12.77c18.04,12.43,31.17,29.1,37.46,50.28c4.74,15.94,6.21,32.61,8.23,49.15
		c1.89,15.62,4.56,31.41,8.31,46.92c0.89,3.8,1.89,7.58,2.94,11.32c7.58,27.13,18.72,53.19,35.08,75.92v193.31H29.2V104.14h214.02
		v118.26C222.56,217.25,200.17,216.97,179.54,218.07z"/>
	<path class="st0" d="M582.8,611.22v88.52h-45.13c-85.55,0-145-12.82-178.38-38.44c-27.65-21.48-43.82-57.03-48.57-106.67
		c23.81,11.91,50.03,19.14,76.69,22.31c55.1,6.53,110.67,5.93,166.04,4.35c-33.9,0-63.6-23.53-86.3-49.8
		c-7.71-8.9-14.59-18.11-20.57-26.86c-19.66-28.64-32.75-60.51-45.84-92.35c58.58,5.46,102.12,21.44,130.64,47.86
		C565.68,492.01,582.8,542.4,582.8,611.22z"/>
	<path class="st0" d="M582.8,92.26v84.49c0,67.35-17.12,115.32-51.41,143.92c-30.86,25.32-81.53,39.48-151.92,42.31
		c-4.04-8.47-8.34-16.83-12.98-24.98c6.58-9.36,12.87-18.93,19.71-28.05c25.04-33.37,52.09-66.61,84.05-93.64
		C487.2,202,508.27,184.62,532,187.08c-30.41-3.17-63.78,3.54-91.83,15.02c-18.67,7.65-36.18,18.11-51.64,31.09
		c-16.57,13.92-28.68,30.72-41.47,47.97c-3.41,4.59-6.82,9.2-10.2,13.82c-8.6-10.64-17.83-20.81-27.63-30.36v-7.86
		c0-65.85,16.7-110.1,50.07-132.78c31.62-21.16,91.04-31.72,178.39-31.72H582.8z"/>
</g>
</svg>
