<?xml version="1.0" encoding="utf-8"?>
<!-- Generator: Adobe Illustrator 26.0.1, SVG Export Plug-In . SVG Version: 6.00 Build 0)  -->
<svg version="1.1" id="Layer_1" xmlns="http://www.w3.org/2000/svg" xmlns:xlink="http://www.w3.org/1999/xlink" x="0px" y="0px"
	 viewBox="0 0 16 16" style="enable-background:new 0 0 16 16;" xml:space="preserve">
<g>
	<g>
		<path d="M14.9,15.3H1.1c-0.6,0-1-0.4-1-1s0.4-1,1-1h13.8c0.6,0,1,0.4,1,1S15.5,15.3,14.9,15.3z"/>
	</g>
	<g>
		<path d="M11.3,11H1.1c-0.6,0-1-0.4-1-1s0.4-1,1-1h10.2c0.6,0,1,0.4,1,1S11.8,11,11.3,11z"/>
	</g>
	<g>
		<path d="M7.9,6.8H1.1c-0.6,0-1-0.4-1-1s0.4-1,1-1h6.8c0.6,0,1,0.4,1,1S8.4,6.8,7.9,6.8z"/>
	</g>
	<g>
		<path d="M4.6,2.5H1.1c-0.6,0-1-0.4-1-1s0.4-1,1-1h3.5c0.6,0,1,0.4,1,1S5.1,2.5,4.6,2.5z"/>
	</g>
</g>
</svg>
