<?xml version="1.0" encoding="utf-8"?>
<!-- Generator: Adobe Illustrator 26.0.1, SVG Export Plug-In . SVG Version: 6.00 Build 0)  -->
<svg version="1.1" id="Layer_1" xmlns="http://www.w3.org/2000/svg" xmlns:xlink="http://www.w3.org/1999/xlink" x="0px" y="0px"
	 viewBox="0 0 16 16" style="enable-background:new 0 0 16 16;" xml:space="preserve">
<g>
	<g>
		<path d="M8.8,15V1c0-0.5-0.4-0.9-0.8-0.9C7.5,0.1,7.1,0.5,7.1,1v14c0,0.5,0.4,0.8,0.9,0.8C8.5,15.8,8.8,15.5,8.8,15z"/>
	</g>
	<g>
		<path d="M15.8,8c0-0.2-0.1-0.4-0.2-0.6c-0.3-0.3-0.9-0.3-1.2,0L8,13.8L1.6,7.4c-0.3-0.3-0.9-0.3-1.2,0s-0.3,0.9,0,1.2l7,7
			c0.3,0.3,0.9,0.3,1.2,0l7-7C15.8,8.4,15.8,8.2,15.8,8z"/>
	</g>
</g>
</svg>
