<?xml version="1.0" encoding="utf-8"?>
<!-- Generator: Adobe Illustrator 26.0.1, SVG Export Plug-In . SVG Version: 6.00 Build 0)  -->
<svg version="1.1" id="Layer_1" xmlns="http://www.w3.org/2000/svg" xmlns:xlink="http://www.w3.org/1999/xlink" x="0px" y="0px"
	 viewBox="0 0 16 16" style="enable-background:new 0 0 16 16;" xml:space="preserve">
<g>
	<g>
		<path d="M9.9,14c-0.3,0-0.5-0.1-0.7-0.3c-0.4-0.4-0.4-1,0-1.4L13.5,8L9.2,3.8c-0.4-0.4-0.4-1,0-1.4s1-0.4,1.4,0l5,5
			c0.4,0.4,0.4,1,0,1.4l-5,5C10.5,13.9,10.2,14,9.9,14z"/>
	</g>
	<g>
		<path d="M6.1,14c-0.3,0-0.5-0.1-0.7-0.3l-5-5C0.2,8.5,0.1,8.3,0.1,8c0-0.3,0.1-0.5,0.3-0.7l5-5c0.4-0.4,1-0.4,1.4,0s0.4,1,0,1.4
			L2.5,8l4.2,4.2c0.4,0.4,0.4,1,0,1.4C6.6,13.9,6.3,14,6.1,14z"/>
	</g>
</g>
</svg>
