<?xml version="1.0" encoding="utf-8"?>
<!-- Generator: Adobe Illustrator 26.0.1, SVG Export Plug-In . SVG Version: 6.00 Build 0)  -->
<svg version="1.1" id="Layer_1" xmlns="http://www.w3.org/2000/svg" xmlns:xlink="http://www.w3.org/1999/xlink" x="0px" y="0px"
	 viewBox="0 0 16 16" style="enable-background:new 0 0 16 16;" xml:space="preserve">
<g>
	<path d="M10.1,15.4h4.2c0.6,0,1.1-0.5,1.1-1.1v-0.8c0-0.6-0.5-1.1-1.1-1.1h-4.2c-0.6,0-1.1,0.5-1.1,1.1v0.8
		C9,14.9,9.5,15.4,10.1,15.4z"/>
	<path d="M10.1,3.8h4.2c0.6,0,1.1-0.5,1.1-1.1V1.8c0-0.6-0.5-1.1-1.1-1.1h-4.2C9.5,0.6,9,1.1,9,1.8v0.8C9,3.2,9.5,3.8,10.1,3.8z"/>
	<path d="M10.1,11h4.2c0.6,0,1.1-0.5,1.1-1.1V6.1c0-0.6-0.5-1.1-1.1-1.1h-4.2C9.5,5,9,5.5,9,6.1v3.8C9,10.5,9.5,11,10.1,11z"/>
	<path d="M1.7,15.4h4.2c0.6,0,1.1-0.5,1.1-1.1v-0.8c0-0.6-0.5-1.1-1.1-1.1H1.7c-0.6,0-1.1,0.5-1.1,1.1v0.8
		C0.6,14.9,1.1,15.4,1.7,15.4z"/>
	<path d="M1.7,7.9h4.2C6.5,7.9,7,8.4,7,9.1v0.8C7,10.5,6.5,11,5.9,11H1.7c-0.6,0-1.1-0.5-1.1-1.1V9.1C0.6,8.4,1.1,7.9,1.7,7.9z"/>
	<path d="M1.7,0.6h4.2C6.5,0.6,7,1.1,7,1.8v3.8c0,0.6-0.5,1.1-1.1,1.1H1.7c-0.6,0-1.1-0.5-1.1-1.1V1.8C0.6,1.1,1.1,0.6,1.7,0.6z"/>
</g>
</svg>
