<?xml version="1.0" encoding="utf-8"?>
<!-- Generator: Adobe Illustrator 26.0.1, SVG Export Plug-In . SVG Version: 6.00 Build 0)  -->
<svg version="1.1" id="Layer_1" xmlns="http://www.w3.org/2000/svg" xmlns:xlink="http://www.w3.org/1999/xlink" x="0px" y="0px"
	 viewBox="0 0 16 16" style="enable-background:new 0 0 16 16;" xml:space="preserve">
<g>
	<path d="M5.9,15.4H1.7c-0.6,0-1.1-0.5-1.1-1.1V1.8c0-0.6,0.5-1.1,1.1-1.1h4.2C6.5,0.6,7,1.1,7,1.8v12.4C7,14.9,6.5,15.4,5.9,15.4z"
		/>
	<path d="M14.3,9.2h-4.2C9.5,9.2,9,8.7,9,8.1V1.8c0-0.6,0.5-1.1,1.1-1.1h4.2c0.6,0,1.1,0.5,1.1,1.1v6.3C15.4,8.7,14.9,9.2,14.3,9.2z
		"/>
</g>
</svg>
