<?xml version="1.0" encoding="utf-8"?>
<!-- Generator: Adobe Illustrator 26.0.1, SVG Export Plug-In . SVG Version: 6.00 Build 0)  -->
<svg version="1.1" id="Layer_1" xmlns="http://www.w3.org/2000/svg" xmlns:xlink="http://www.w3.org/1999/xlink" x="0px" y="0px"
	 viewBox="0 0 16 16" style="enable-background:new 0 0 16 16;" xml:space="preserve">
<g>
	<path d="M1.7,15.4h4.2c0.6,0,1.1-0.5,1.1-1.1V8.1C7,7.5,6.5,7,5.9,7H1.7C1.1,7,0.6,7.5,0.6,8.1v6.1C0.6,14.9,1.1,15.4,1.7,15.4z"/>
	<path d="M1.7,4.7h4.2C6.5,4.7,7,4.2,7,3.6V1.8c0-0.6-0.5-1.1-1.1-1.1H1.7c-0.6,0-1.1,0.5-1.1,1.1v1.8C0.6,4.2,1.1,4.7,1.7,4.7z"/>
	<path d="M10.1,15.4h4.2c0.6,0,1.1-0.5,1.1-1.1V1.8c0-0.6-0.5-1.1-1.1-1.1h-4.2C9.5,0.6,9,1.1,9,1.8v12.4C9,14.9,9.5,15.4,10.1,15.4
		z"/>
</g>
</svg>
