<?xml version="1.0" encoding="utf-8"?>
<!-- Generator: Adobe Illustrator 26.0.1, SVG Export Plug-In . SVG Version: 6.00 Build 0)  -->
<svg version="1.1" id="Layer_1" xmlns="http://www.w3.org/2000/svg" xmlns:xlink="http://www.w3.org/1999/xlink" x="0px" y="0px"
	 viewBox="0 0 16 16" style="enable-background:new 0 0 16 16;" xml:space="preserve">
<g>
	<path d="M5.9,9H1.7C1.1,9,0.6,8.5,0.6,7.9V1.8c0-0.6,0.5-1.1,1.1-1.1h4.2C6.5,0.6,7,1.2,7,1.8v6.1C7,8.5,6.5,9,5.9,9z"/>
	<path d="M14.3,15.4h-4.2c-0.6,0-1.1-0.5-1.1-1.1V8.1C9,7.5,9.5,7,10.1,7h4.2c0.6,0,1.1,0.5,1.1,1.1v6.1
		C15.4,14.8,14.9,15.4,14.3,15.4z"/>
	<path d="M5.9,15.4H1.7c-0.6,0-1.1-0.5-1.1-1.1v-1.8c0-0.6,0.5-1.1,1.1-1.1h4.2c0.6,0,1.1,0.5,1.1,1.1v1.8C7,14.8,6.5,15.4,5.9,15.4
		z"/>
	<path d="M14.3,4.8h-4.2C9.5,4.8,9,4.2,9,3.6V1.8c0-0.6,0.5-1.1,1.1-1.1h4.2c0.6,0,1.1,0.5,1.1,1.1v1.8C15.4,4.2,14.9,4.8,14.3,4.8z
		"/>
</g>
</svg>
