<?xml version="1.0" encoding="utf-8"?>
<!-- Generator: Adobe Illustrator 26.0.1, SVG Export Plug-In . SVG Version: 6.00 Build 0)  -->
<svg version="1.1" id="Layer_1" xmlns="http://www.w3.org/2000/svg" xmlns:xlink="http://www.w3.org/1999/xlink" x="0px" y="0px"
	 viewBox="0 0 16 16" style="enable-background:new 0 0 16 16;" xml:space="preserve">
<g>
	<g>
		<path d="M14.7,15.8H6.2c-0.6,0-1.1-0.5-1.1-1.1V6.2c0-0.6,0.5-1.1,1.1-1.1h8.5c0.6,0,1.1,0.5,1.1,1.1v8.5
			C15.8,15.3,15.3,15.8,14.7,15.8z M6.8,14.1h7.3V6.8H6.8V14.1z M14.7,6.8L14.7,6.8L14.7,6.8z"/>
	</g>
	<g>
		<path d="M3.1,10.9H1.3c-0.6,0-1.1-0.5-1.1-1.1V1.3c0-0.6,0.5-1.1,1.1-1.1h8.5c0.6,0,1.1,0.5,1.1,1.1v1.8c0,0.5-0.4,0.9-0.8,0.9
			S9.2,3.6,9.2,3.1V1.9H1.9v7.3h1.2C3.6,9.2,4,9.6,4,10.1S3.6,10.9,3.1,10.9z"/>
	</g>
</g>
</svg>
