<?xml version="1.0" encoding="utf-8"?>
<!-- Generator: Adobe Illustrator 26.0.1, SVG Export Plug-In . SVG Version: 6.00 Build 0)  -->
<svg version="1.1" id="Layer_1" xmlns="http://www.w3.org/2000/svg" xmlns:xlink="http://www.w3.org/1999/xlink" x="0px" y="0px"
	 viewBox="0 0 16 16" style="enable-background:new 0 0 16 16;" xml:space="preserve">
<g>
	<path d="M1.3,15.7c-0.3,0-0.5-0.1-0.7-0.3c-0.4-0.4-0.4-1,0-1.4L14,0.6c0.4-0.4,1-0.4,1.4,0s0.4,1,0,1.4L2,15.4
		C1.9,15.6,1.6,15.7,1.3,15.7z"/>
</g>
<g>
	<path d="M14.7,15.7c-0.3,0-0.5-0.1-0.7-0.3L0.6,2c-0.4-0.4-0.4-1,0-1.4s1-0.4,1.4,0L15.4,14c0.4,0.4,0.4,1,0,1.4
		C15.2,15.6,14.9,15.7,14.7,15.7z"/>
</g>
</svg>
