<?xml version="1.0" encoding="utf-8"?>
<!-- Generator: Adobe Illustrator 26.0.1, SVG Export Plug-In . SVG Version: 6.00 Build 0)  -->
<svg version="1.1" id="Layer_1" xmlns="http://www.w3.org/2000/svg" xmlns:xlink="http://www.w3.org/1999/xlink" x="0px" y="0px"
	 viewBox="0 0 16 16" style="enable-background:new 0 0 16 16;" xml:space="preserve">
<g>
	<g>
		<path d="M14.3,4.6H1.7c-0.5,0-0.9-0.4-0.9-0.9s0.4-0.9,0.9-0.9h12.6c0.5,0,0.8,0.4,0.8,0.9S14.8,4.6,14.3,4.6z"/>
	</g>
	<g>
		<path d="M12.7,15.9H3.3c-0.6,0-1.1-0.5-1.1-1.1v-11c0-0.5,0.4-0.9,0.9-0.9s0.9,0.4,0.9,0.9v10.4h8.1V3.8c0-0.5,0.4-0.9,0.8-0.9
			s0.8,0.4,0.8,0.9v11C13.8,15.4,13.3,15.9,12.7,15.9z M10.8,4.6c-0.5,0-0.8-0.4-0.8-0.9v-2H6v2c0,0.5-0.4,0.9-0.9,0.9
			S4.3,4.3,4.3,3.8V1.2c0-0.6,0.5-1.1,1.1-1.1h5.1c0.6,0,1.1,0.5,1.1,1.1v2.6C11.7,4.3,11.3,4.6,10.8,4.6z"/>
	</g>
	<g>
		<path d="M6.6,12.4c-0.5,0-0.9-0.4-0.9-0.8V7.3c0-0.5,0.4-0.9,0.9-0.9s0.8,0.4,0.8,0.9v4.2C7.4,12,7.1,12.4,6.6,12.4z"/>
	</g>
	<g>
		<path d="M9.4,12.4c-0.5,0-0.8-0.4-0.8-0.8V7.3c0-0.5,0.4-0.9,0.8-0.9s0.8,0.4,0.8,0.9v4.2C10.3,12,9.9,12.4,9.4,12.4z"/>
	</g>
</g>
</svg>
