<?xml version="1.0" encoding="utf-8"?>
<!-- Generator: Adobe Illustrator 26.0.1, SVG Export Plug-In . SVG Version: 6.00 Build 0)  -->
<svg version="1.1" id="Layer_1" xmlns="http://www.w3.org/2000/svg" xmlns:xlink="http://www.w3.org/1999/xlink" x="0px" y="0px"
	 viewBox="0 0 16 16" style="enable-background:new 0 0 16 16;" xml:space="preserve">
<g>
	<g>
		<path d="M6.8,15.1c-0.3,0-0.6-0.3-0.6-0.6v-2.6c0-0.3,0.3-0.6,0.6-0.6s0.6,0.3,0.6,0.6v2.6C7.4,14.9,7.1,15.1,6.8,15.1z"/>
	</g>
	<g>
		<path d="M9.2,15.1c-0.3,0-0.6-0.3-0.6-0.6v-2.6c0-0.3,0.3-0.6,0.6-0.6s0.6,0.3,0.6,0.6v2.6C9.8,14.9,9.5,15.1,9.2,15.1z"/>
	</g>
	<path d="M11.4,15.8H4.6c-0.3,0-0.6-0.3-0.6-0.6s0.3-0.6,0.6-0.6h6.8c0.3,0,0.6,0.3,0.6,0.6S11.7,15.8,11.4,15.8z"/>
	<path d="M14.6,9.8H1.4C1,9.8,0.8,9.6,0.8,9.2S1,8.6,1.4,8.6h13.3c0.3,0,0.6,0.3,0.6,0.6S15,9.8,14.6,9.8z"/>
	<path d="M13.3,12.9H2.7c-1.5,0-2.6-0.9-2.6-1.9V2.1c0-1.1,1.2-1.9,2.6-1.9h10.6c1.5,0,2.6,0.9,2.6,1.9v8.8
		C15.9,12,14.8,12.9,13.3,12.9z M2.7,1.9c-0.5,0-0.9,0.2-0.9,0.3l0,8.7c0,0,0.4,0.2,0.9,0.2h10.6c0.5,0,0.9-0.2,0.9-0.3l0-8.7
		c0,0-0.4-0.2-0.9-0.2H2.7z"/>
</g>
</svg>
