<svg id="Layer_1" data-name="Layer 1" xmlns="http://www.w3.org/2000/svg" viewBox="0 0 15.08 23.83"><defs><style>.cls-1{fill:#010101;}</style></defs><path class="cls-1" d="M12.35,17.38v3.53a.89.89,0,0,1,0,.28.31.31,0,0,1-.33.23.31.31,0,0,1-.32-.26,1.23,1.23,0,0,1,0-.27V13.7c0-.26.13-.41.34-.41s.36.14.36.41Z" transform="translate(-4.46 -0.08)"/><path d="M9.21,17.4c.07,1.17.13,2.35.2,3.53a.86.86,0,0,1,0,.16.34.34,0,0,1-.68,0c0-.33-.05-.65-.07-1q-.16-3.21-.35-6.43c0-.26.1-.41.31-.43s.37.12.38.39c.06.93.11,1.86.16,2.79,0,.31,0,.62.05.93Z" transform="translate(-4.46 -0.08)"/><path d="M14.78,17.61c.08-1.43.14-2.65.21-3.87a.47.47,0,0,1,.13-.36.33.33,0,0,1,.39-.06.34.34,0,0,1,.18.37c0,.5,0,1-.08,1.51-.1,1.86-.2,3.71-.31,5.57a2.64,2.64,0,0,1,0,.28c0,.26-.17.39-.38.37s-.32-.17-.31-.41c0-.51.05-1,.08-1.51C14.71,18.8,14.75,18.1,14.78,17.61Z" transform="translate(-4.46 -0.08)"/><path d="M19.54,9.63a.82.82,0,0,0-.9-.93c-.08,0-.15,0-.18-.1a1.81,1.81,0,0,0-.69-.88L16.21,6.51c-.11-.09-.14-.15,0-.28s.35-.49.52-.74a.88.88,0,0,0-.11-1.15c-.75-.76-1.5-1.52-2.27-2.27A.88.88,0,0,0,13.13,2c-.23.16-.47.31-.69.48s-.21.11-.32,0c-.41-.55-.84-1.08-1.26-1.61A1.61,1.61,0,0,0,8.3.64C7.53,1.4,6.77,2.17,6,2.94A1.62,1.62,0,0,0,6.16,5.5L7.8,6.79c.12.09.13.14,0,.25s-.23.34-.35.49A1.1,1.1,0,0,0,7.23,8.7H5.3a.81.81,0,0,0-.84.83v1.1a.8.8,0,0,0,.57.81.21.21,0,0,1,.16.23l.3,5.27c.09,1.75.19,3.5.29,5.25A1.73,1.73,0,0,0,6.91,23.8c.1.05.21,0,.3.12h9.54a.07.07,0,0,1,.05,0,1.68,1.68,0,0,0,1.4-1.53c.08-.88.11-1.76.16-2.64,0-.27-.1-.44-.32-.45s-.36.12-.37.4c-.05.82-.09,1.63-.14,2.44a1.07,1.07,0,0,1-1.18,1.12H7.65A1.07,1.07,0,0,1,6.47,22.1q-.28-5.18-.58-10.35c0-.21,0-.26.24-.26H18c.1,0,.15,0,.15.13,0,.53-.07,1.06-.09,1.58-.09,1.57-.18,3.13-.26,4.69,0,.26.12.42.32.43a.36.36,0,0,0,.37-.39c0-.6.07-1.2.1-1.79.08-1.49.17-3,.25-4.46a.21.21,0,0,1,.16-.24.79.79,0,0,0,.57-.81Zm-6-7.08a.23.23,0,0,1,.33,0L16.06,4.8a.23.23,0,0,1,0,.35c-.15.23-.31.44-.46.67s-.12.12-.22,0a16.11,16.11,0,0,1-2.11-2c-.2-.22-.39-.46-.59-.7ZM6.56,4.93l-.07,0a.91.91,0,0,1-.08-1.36c.82-.83,1.64-1.65,2.47-2.47a.9.9,0,0,1,1.4.14c.62.78,1.24,1.57,1.85,2.36a19.7,19.7,0,0,0,3.7,3.54c.54.41,1.06.83,1.59,1.25a.94.94,0,0,1,.32.36h-.92a.25.25,0,0,1-.15-.06,38.21,38.21,0,0,1-4-3.35,40.59,40.59,0,0,1-2.57-3.15c-.48-.63-.79-.64-1.31-.08S7.78,3.13,7.25,3.66a.56.56,0,0,0,.06,1c1,.78,2,1.51,2.9,2.33A17.61,17.61,0,0,1,11.92,8.7H11.1a.21.21,0,0,1-.18-.07A36.74,36.74,0,0,0,6.56,4.93ZM8,8.11c.14-.22.3-.43.44-.65s.13-.11.23,0c.47.39.93.8,1.4,1.27-.63,0-1.2,0-1.78,0A.39.39,0,0,1,8,8.11Zm10.7,2.68H5.48c-.32,0-.32,0-.32-.31s0-.53,0-.79.07-.3.3-.3H13.6A.36.36,0,0,0,14,9.05a.37.37,0,0,0-.34-.35h-.07a1.14,1.14,0,0,1-1.18-.54,22.44,22.44,0,0,0-3.9-3.51L7.9,4.21c-.09-.07-.11-.11,0-.2.53-.52,1-1,1.61-1.61A23.86,23.86,0,0,0,15.6,8.64l0,.06h-.29a.35.35,0,0,0-.4.35c0,.21.15.35.41.35h3.37c.13,0,.18,0,.18.18v1C18.84,10.74,18.79,10.8,18.65,10.79Z" transform="translate(-4.46 -0.08)"/></svg>