<?xml version="1.0" encoding="utf-8"?>
<!-- Generator: Adobe Illustrator 26.0.1, SVG Export Plug-In . SVG Version: 6.00 Build 0)  -->
<svg version="1.1" id="Layer_1" xmlns="http://www.w3.org/2000/svg" xmlns:xlink="http://www.w3.org/1999/xlink" x="0px" y="0px"
	 viewBox="0 0 17 16" style="enable-background:new 0 0 17 16;" xml:space="preserve">
<g>
	<path d="M16.7,5.3l-2.8,3.3l-1.7,2l-0.8,0.9c0,0,0,0-0.1,0.1l-2,1l0.3-1.1l0.2-0.8l0.1-0.2l0.1-0.1L12.2,8l1.7-2l1.5-1.8
		c0.3-0.3,0.8-0.3,1.1,0C16.9,4.5,17,5,16.7,5.3z"/>
	<g>
		<path d="M12.2,8v2.6l1.7-2V6L12.2,8z M13.9,4.7V1.2c0-0.6-0.5-1.1-1-1.1H1.1c-0.5,0-1,0.5-1,1.1v13.6c0,0.6,0.5,1.1,1,1.1h11.8
			c0.2,0,1-0.1,1-1.2V10l-1.7,2v2.1H1.8V1.8h10.4v4.9L13.9,4.7z"/>
	</g>
	<g>
		<path d="M10.7,4.9H3.6C3.1,4.9,2.7,4.5,2.7,4s0.4-0.8,0.8-0.8h7.1c0.5,0,0.8,0.4,0.8,0.8S11.1,4.9,10.7,4.9z"/>
	</g>
	<g>
		<path d="M8.3,7.9H3.6c-0.5,0-0.8-0.4-0.8-0.8s0.4-0.8,0.8-0.8h4.7c0.5,0,0.8,0.4,0.8,0.8S8.8,7.9,8.3,7.9z"/>
	</g>
</g>
</svg>
