<svg width="16" height="20" viewBox="0 0 16 20" fill="none" xmlns="http://www.w3.org/2000/svg">
<path fill-rule="evenodd" clip-rule="evenodd" d="M5.33333 0C4.35149 0 3.55556 0.814028 3.55556 1.81818H2.66667C1.95942 1.81818 1.28115 2.10552 0.781049 2.61698C0.280951 3.12844 0 3.82214 0 4.54545V17.2727C0 17.996 0.280952 18.6897 0.781049 19.2012C1.28115 19.7127 1.95942 20 2.66667 20H13.3333C14.0406 20 14.7189 19.7127 15.219 19.2012C15.719 18.6897 16 17.996 16 17.2727V4.54545C16 3.82214 15.719 3.12844 15.219 2.61698C14.7189 2.10552 14.0406 1.81818 13.3333 1.81818H12.4444C12.4444 0.814028 11.6485 0 10.6667 0H5.33333ZM12.4444 3.63636C12.4444 4.64052 11.6485 5.45455 10.6667 5.45455H5.33333C4.35149 5.45455 3.55556 4.64052 3.55556 3.63636H2.66667C2.43092 3.63636 2.20483 3.73214 2.03813 3.90263C1.87143 4.07312 1.77778 4.30435 1.77778 4.54545V17.2727C1.77778 17.5138 1.87143 17.7451 2.03813 17.9156C2.20483 18.086 2.43092 18.1818 2.66667 18.1818H13.3333C13.5691 18.1818 13.7952 18.086 13.9619 17.9156C14.1286 17.7451 14.2222 17.5138 14.2222 17.2727V4.54545C14.2222 4.30435 14.1286 4.07312 13.9619 3.90263C13.7952 3.73214 13.5691 3.63636 13.3333 3.63636H12.4444ZM5.33333 3.63636H10.6667V1.81818H5.33333V3.63636Z" fill="black"/>
</svg>
