<svg id="Layer_1" data-name="Layer 1" xmlns="http://www.w3.org/2000/svg" viewBox="0 0 23.83 23.83"><defs><style>.cls-1{fill:#010101;}</style></defs><path d="M22.42.08H1.57A1.37,1.37,0,0,0,.08,1.58v17a1.36,1.36,0,0,0,1.49,1.49H17.16c.18,0,.23,0,.23.22,0,.55,0,1.1,0,1.66a1.92,1.92,0,1,0,3.84,0q0-.84,0-1.68c0-.15,0-.2.18-.19h1a1.36,1.36,0,0,0,1.49-1.47v-17A1.37,1.37,0,0,0,22.42.08Zm-4.27,14V8.76c0-.18,0-.23.21-.22.65,0,1.29,0,1.93,0,.13,0,.17,0,.17.17V19.52c0,.16-.06.17-.19.17-.64,0-1.27,0-1.9,0-.18,0-.23,0-.22-.22ZM19.88,7a.54.54,0,0,1,.58.55c0,.16,0,.24-.21.23s-.64,0-1,0-.64,0-1,0c-.17,0-.19-.06-.18-.21a1.48,1.48,0,0,1,.22-.52c0-.08.12,0,.19,0Zm-1.1-.77.52-1.06.53,1.06Zm-.41,14.22h1.85c.14,0,.25,0,.25.2s-.13.18-.26.18H18.38c-.14,0-.25,0-.24-.2S18.24,20.45,18.37,20.45ZM19.8,23a1.17,1.17,0,0,1-1.42-.36,1.41,1.41,0,0,1-.23-1c0-.12.09-.09.15-.09h2c.05,0,.12,0,.14.08A1.28,1.28,0,0,1,19.8,23Zm3.35-4.46c0,.52-.21.72-.73.72-.33,0-.65,0-1,0s-.22-.06-.22-.23c0-3.82,0-7.64,0-11.45A1.21,1.21,0,0,0,21.08,7L19.7,4.24c-.09-.17-.19-.32-.41-.31a.45.45,0,0,0-.38.31c-.47,1-.95,1.9-1.43,2.85a1.06,1.06,0,0,0-.1.46c0,3.84,0,7.67,0,11.51,0,.19,0,.25-.24.25H1.58c-.52,0-.73-.2-.73-.72V3.4c0-.2,0-.25.24-.25H22.9c.2,0,.25,0,.25.25Zm0-16.24c-.14.16-.48.05-.73.05H1.12c-.24,0-.29-.07-.27-.29s0-.45,0-.67A.6.6,0,0,1,1.43.85H22.37c.59,0,.78.19.78.77C23.15,1.87,23.23,2.2,23.11,2.34Z" transform="translate(-0.08 -0.08)"/><path d="M12.62,3.93H2.9c-.38,0-.51.12-.51.5V11.1c0,.39.12.52.52.52h9.72c.4,0,.52-.13.52-.52V4.45C13.15,4.05,13,3.93,12.62,3.93Zm-.23,6.7c0,.18,0,.22-.22.22H3.38c-.18,0-.23,0-.23-.22,0-1.9,0-3.81,0-5.72,0-.18.05-.22.23-.22h8.79c.18,0,.22,0,.22.22C12.38,6.82,12.38,8.72,12.39,10.63Z" transform="translate(-0.08 -0.08)"/><path d="M2.94,13.15H12.8a.38.38,0,0,0,.35-.39.36.36,0,0,0-.34-.37H2.73a.37.37,0,0,0-.34.37.37.37,0,0,0,.33.39Z" transform="translate(-0.08 -0.08)"/><path d="M12.79,13.92H2.92c-.35,0-.52.13-.53.38s.18.39.54.39H12.8a.39.39,0,0,0,0-.77Z" transform="translate(-0.08 -0.08)"/><path d="M12.68,15.46H3a1,1,0,0,0-.24,0,.36.36,0,0,0-.32.28.37.37,0,0,0,.15.4.52.52,0,0,0,.35.08h9.79c.29,0,.46-.14.46-.38S13,15.46,12.68,15.46Z" transform="translate(-0.08 -0.08)"/><path d="M9.74,17a1.62,1.62,0,0,0-.22,0H3a1.21,1.21,0,0,0-.19,0,.38.38,0,0,0-.39.37.4.4,0,0,0,.4.4h7a.36.36,0,0,0,.32-.38A.36.36,0,0,0,9.74,17Z" transform="translate(-0.08 -0.08)"/><path class="cls-1" d="M2.25,1.24h0c-.41,0-.59.12-.59.39S1.81,2,2.2,2h0c.34,0,.52-.13.52-.39S2.6,1.24,2.25,1.24Z" transform="translate(-0.08 -0.08)"/><path class="cls-1" d="M3.73,1.24H3.57a.38.38,0,0,0-.41.38.39.39,0,0,0,.4.39h.17c.4,0,.59-.13.58-.4S4.13,1.24,3.73,1.24Z" transform="translate(-0.08 -0.08)"/><path class="cls-1" d="M5.27,1.24H5.11a.39.39,0,1,0,0,.77h.17c.41,0,.59-.13.59-.39S5.67,1.24,5.27,1.24Z" transform="translate(-0.08 -0.08)"/><path d="M18.92,14.09v4.75c0,.29.14.46.37.46s.39-.17.4-.47V9.47a1.48,1.48,0,0,0,0-.21A.38.38,0,0,0,19,9.09a.5.5,0,0,0-.07.34Z" transform="translate(-0.08 -0.08)"/></svg>