<?xml version="1.0" encoding="utf-8"?>
<!-- Generator: Adobe Illustrator 26.0.1, SVG Export Plug-In . SVG Version: 6.00 Build 0)  -->
<svg version="1.1" id="Layer_1" xmlns="http://www.w3.org/2000/svg" xmlns:xlink="http://www.w3.org/1999/xlink" x="0px" y="0px"
	 viewBox="0 0 16 16" style="enable-background:new 0 0 16 16;" xml:space="preserve">
<g>
	<g>
		<path d="M13.5,15.7H1.4c-0.6,0-1.1-0.5-1.1-1.1V3c0-0.6,0.5-1.1,1.1-1.1h4.8C6.6,1.9,7,2.3,7,2.7S6.6,3.6,6.1,3.6H2V14h10.8l0-4.6
			c0-0.5,0.4-0.9,0.8-0.9s0.8,0.4,0.8,0.9v5.1C14.4,15.6,13.6,15.7,13.5,15.7z"/>
	</g>
	<g>
		<path d="M5.2,11.7c-0.2,0-0.4-0.1-0.6-0.2c-0.2-0.2-0.3-0.5-0.2-0.8L5,7.9c0-0.1,0.1-0.3,0.2-0.4L11.8,1l0,0
			c0.9-0.9,2.4-0.9,3.3,0c0.4,0.4,0.7,1,0.7,1.6c0,0.6-0.2,1.2-0.7,1.6l-6.5,6.5C8.4,10.9,8.3,11,8.1,11l-2.8,0.7
			C5.3,11.7,5.2,11.7,5.2,11.7z M6.6,8.6L6.3,9.7l1.2-0.3l6.4-6.4C14,2.9,14,2.8,14,2.6c0-0.2-0.1-0.3-0.2-0.4C13.6,2,13.2,2,13,2.2
			L6.6,8.6z"/>
	</g>
</g>
</svg>
