<?xml version="1.0" encoding="utf-8"?>
<!-- Generator: Adobe Illustrator 26.0.1, SVG Export Plug-In . SVG Version: 6.00 Build 0)  -->
<svg version="1.1" id="Layer_1" xmlns="http://www.w3.org/2000/svg" xmlns:xlink="http://www.w3.org/1999/xlink" x="0px" y="0px"
	 viewBox="0 0 16 16" style="enable-background:new 0 0 16 16;" xml:space="preserve">
<g>
	<g>
		<path d="M3.9,7.2C2,7.2,0.5,5.6,0.5,3.8S2,0.5,3.9,0.5S7.2,2,7.2,3.8S5.7,7.2,3.9,7.2z M3.9,2.2C3,2.2,2.2,2.9,2.2,3.8
			S3,5.5,3.9,5.5s1.6-0.7,1.6-1.6S4.8,2.2,3.9,2.2z"/>
	</g>
	<g>
		<path d="M14.2,7.2H9.7c-0.6,0-1-0.5-1-1V1.6c0-0.6,0.5-1.1,1-1.1h4.5c0.6,0,1,0.5,1,1.1v4.5C15.2,6.9,14.7,7.2,14.2,7.2z
			 M10.3,5.5h3.2l0-3.2h-3.2V5.5z"/>
	</g>
	<g>
		<path d="M6.1,15.5H1.6c-0.6,0-1.1-0.5-1.1-1V9.9c0-0.6,0.5-1,1.1-1h4.5c0.6,0,1,0.5,1,1v4.5C7.1,15.1,6.7,15.5,6.1,15.5z
			 M2.2,13.9h3.2v-3.3H2.2V13.9z"/>
	</g>
	<g>
		<path d="M14.5,15.4h-5c-0.3,0-0.7-0.2-0.8-0.5c-0.2-0.3-0.2-0.7,0-1l1.3-2.4L11,9.2c0.2-0.3,0.5-0.6,0.9-0.6c0,0,0,0,0,0
			c0.4,0,0.7,0.2,0.9,0.6l1.2,2.4l1.3,2.4c0.2,0.4,0.2,0.7,0,1C15.1,15.3,14.8,15.4,14.5,15.4z M10.3,13.9h3.3l-0.9-1.7L12,10.7
			l-0.7,1.5L10.3,13.9z"/>
	</g>
</g>
</svg>
