<svg width="18" height="14" viewBox="0 0 18 14" fill="none" xmlns="http://www.w3.org/2000/svg">
<path fill-rule="evenodd" clip-rule="evenodd" d="M0 2.33333C0 1.04467 1.00736 0 2.25 0H15.75C16.9926 0 18 1.04467 18 2.33333V11.6667C18 12.9553 16.9926 14 15.75 14H2.25C1.00736 14 0 12.9553 0 11.6667V2.33333ZM1.5 2.33333C1.5 1.90378 1.83579 1.55556 2.25 1.55556H15.75C16.1642 1.55556 16.5 1.90378 16.5 2.33333V4.66667H1.5V2.33333ZM16.5 6.22222V11.6667C16.5 12.0962 16.1642 12.4444 15.75 12.4444H2.25C1.83579 12.4444 1.5 12.0962 1.5 11.6667V6.22222H16.5Z" fill="black"/>
</svg>
