<svg id="Layer_1" data-name="Layer 1" xmlns="http://www.w3.org/2000/svg" viewBox="0 0 24 24.01"><path d="M4,2.4C5.86,4.24,7.44,5.74,9,7.31c.67.68,2,1.38.82,2.53S8,9.68,7.36,9C5.78,7.46,4.23,5.86,2.41,4c0,1.06,0,1.74,0,2.41C2.4,7.24,2,7.8,1.17,7.78A1.13,1.13,0,0,1,0,6.49C0,4.55,0,2.6,0,.66,0,.11.23,0,.71,0c2,0,3.89,0,5.84,0a1.12,1.12,0,0,1,1.23,1.2A1.14,1.14,0,0,1,6.52,2.4C5.83,2.42,5.14,2.4,4,2.4Z" transform="translate(0)"/><path d="M19.53,2.4c-.69,0-1.39,0-2.09,0a1.14,1.14,0,0,1-1.23-1.21A1.08,1.08,0,0,1,17.33,0c2.05,0,4.09,0,6.14,0C24,0,24,.32,24,.69c0,1.89,0,3.79,0,5.69,0,.8-.34,1.4-1.2,1.4s-1.2-.58-1.2-1.39V4.07c-1.69,1.7-3.18,3.19-4.66,4.69-.35.35-.69.72-1.06,1.05a1.12,1.12,0,0,1-1.72,0,1.12,1.12,0,0,1,.06-1.72c1.43-1.46,2.88-2.91,4.34-4.33a12.37,12.37,0,0,1,1.28-1Z" transform="translate(0)"/><path d="M4.41,21.6c.72,0,1.45,0,2.17,0a1.12,1.12,0,0,1,1.2,1.24A1.09,1.09,0,0,1,6.63,24c-2,0-4,0-6,0C.09,24,0,23.76,0,23.29c0-1.95,0-3.89,0-5.84a1.12,1.12,0,0,1,1.2-1.23A1.13,1.13,0,0,1,2.4,17.48c0,.69,0,1.39,0,2.45l4.77-4.79c.32-.32.62-.65,1-1a1.13,1.13,0,0,1,1.72,0,1.13,1.13,0,0,1-.08,1.73c-1.43,1.46-2.87,2.91-4.33,4.33a10.26,10.26,0,0,1-1.3.94Z" transform="translate(0)"/><path d="M20,21.6l-5.36-5.27c-.63-.61-1.32-1.27-.48-2.14s1.51-.21,2.14.42C18,16.31,19.65,18,21.59,20c0-1.05,0-1.77,0-2.49a1.19,1.19,0,1,1,2.38,0c0,2,0,3.9,0,5.84,0,.67-.32.7-.83.69-1.84,0-3.69,0-5.53,0-.81,0-1.41-.32-1.42-1.18s.55-1.22,1.37-1.22Z" transform="translate(0)"/></svg>