<?xml version="1.0" encoding="utf-8"?>
<!-- Generator: Adobe Illustrator 26.0.1, SVG Export Plug-In . SVG Version: 6.00 Build 0)  -->
<svg version="1.1" id="Layer_1" xmlns="http://www.w3.org/2000/svg" xmlns:xlink="http://www.w3.org/1999/xlink" x="0px" y="0px"
	 viewBox="0 0 16 16" style="enable-background:new 0 0 16 16;" xml:space="preserve">
<g>
	<path d="M9.4,15.8c-0.1,0-0.3,0-0.4-0.1l-2.8-1.5c-0.3-0.1-0.4-0.4-0.4-0.7V8.6l-5.5-7C0.1,1.4,0,1,0.2,0.7
		c0.1-0.3,0.4-0.5,0.8-0.5h14.1c0.3,0,0.6,0.2,0.8,0.5C16,1,15.9,1.4,15.7,1.6l-5.5,7v6.3c0,0.3-0.2,0.6-0.4,0.7
		C9.7,15.7,9.6,15.8,9.4,15.8z M7.4,12.9l1.1,0.6V8.4c0-0.2,0.1-0.4,0.2-0.5l4.6-5.9H2.7l4.6,5.9C7.4,8,7.4,8.2,7.4,8.4V12.9z"/>
</g>
</svg>
