<svg id="Layer_1" data-name="Layer 1" xmlns="http://www.w3.org/2000/svg" xmlns:xlink="http://www.w3.org/1999/xlink" viewBox="0 0 23.09 17.04"><defs><style>.cls-1{fill:none;}.cls-2{clip-path:url(#clip-path);}</style><clipPath id="clip-path" transform="translate(-0.46 -3.48)"><rect class="cls-1" x="0.46" y="3.47" width="23.09" height="17.06"/></clipPath></defs><g class="cls-2"><path d="M19.46,3.48H4.12c-.85,0-.85,0-.85.85V6.89h17V4.33c0-.85,0-.85-.85-.85Zm1.7,5.11L18.6,13.7v5.12H5V13.7L2.84,8.59ZM12.64,10.3H10.93c-.85,0-.85,0-.85.85V13.7H8.38l3.41,3.84,3.4-3.84h-1.7V11.15c0-.85,0-.85-.85-.85Zm9.8-3.41H1.56c-1.28,0-1.28,0-.85.85l2.56,6v6c0,.85,0,.85.85.85H19.45c.86,0,.86,0,.86-.85v-6l3-6c.43-.85.43-.85-.85-.85Z" transform="translate(-0.46 -3.48)"/></g></svg>