<svg id="Layer_1" data-name="Layer 1" xmlns="http://www.w3.org/2000/svg" xmlns:xlink="http://www.w3.org/1999/xlink" viewBox="0 0 17.04 23.09"><defs><style>.cls-1{fill:none;}.cls-2{clip-path:url(#clip-path);}</style><clipPath id="clip-path" transform="translate(-3.48 -0.46)"><rect class="cls-1" x="3.47" y="0.46" width="17.06" height="23.09"/></clipPath></defs><g class="cls-2"><path d="M20.52,19.46V4.12c0-.85,0-.85-.85-.85H17.11v17h2.56c.85,0,.85,0,.85-.85Zm-5.11,1.7L10.3,18.6H5.18V5H10.3l5.11-2.13V21.16ZM13.7,12.64V10.93c0-.85,0-.85-.85-.85H10.3V8.38L6.46,11.79l3.84,3.4v-1.7h2.55c.85,0,.85,0,.85-.85Zm3.41,9.8V1.56c0-1.28,0-1.28-.85-.85l-6,2.56h-6c-.85,0-.85,0-.85.85V19.45c0,.86,0,.86.85.86h6l6,3c.85.43.85.43.85-.85Z" transform="translate(-3.48 -0.46)"/></g></svg>