<svg id="Layer_1" data-name="Layer 1" xmlns="http://www.w3.org/2000/svg" viewBox="0 0 24 12.45"><defs><style>.cls-1{fill:#97d7ca;}.cls-2{fill:#dbe3be;}.cls-3{fill:#b9ddc4;}.cls-4{fill:#75d0d0;}.cls-5{fill:#fdeab8;}.cls-6{fill:#eddab1;}.cls-7{fill:#dce4c0;}.cls-8{fill:#9ad9cc;}</style></defs><path class="cls-1" d="M14.4,10.12h5a11.73,11.73,0,0,1,0,8.05h-5A11.18,11.18,0,0,1,14.4,10.12Z" transform="translate(0 -5.77)"/><path class="cls-2" d="M9.75,18.19H5.09a11.67,11.67,0,0,1,0-8.09H9.75A11.72,11.72,0,0,1,9.75,18.19Z" transform="translate(0 -5.77)"/><path class="cls-3" d="M9.75,18.19V10.1l4.65,0v8.05Z" transform="translate(0 -5.77)"/><path class="cls-4" d="M19.42,18.17V10.12C24.59,10,24,9.72,24,14.53q0,.48,0,1c0,2.65-.09,2.74-2.65,2.74C20.7,18.23,20.06,18.19,19.42,18.17Z" transform="translate(0 -5.77)"/><path class="cls-5" d="M5.1,10.1c0,2.7,0,5.4,0,8.09H4.33A17.55,17.55,0,0,1,.47,10.47C2,9.66,3.56,10.26,5.1,10.1Z" transform="translate(0 -5.77)"/><path class="cls-6" d="M.47,10.47c1.13.75.89,2.15,1.52,3.17.9,1.44,1.57,3,2.34,4.56C-.62,18.26.11,18.56.11,14,.11,12.84-.3,11.59.47,10.47Z" transform="translate(0 -5.77)"/><path class="cls-7" d="M7.24,5.79c.59.21,1.67-.37,1.6.75-.05.9-.63,2.14-1.52,2.13S5.87,7.4,5.75,6.53C5.58,5.37,6.73,6.05,7.24,5.79Z" transform="translate(0 -5.77)"/><path class="cls-8" d="M16.94,5.77c.52.24,1.61-.37,1.43.68s-.62,2.23-1.68,2.23c-.76,0-1.33-1.24-1.41-2.07C15.16,5.3,16.37,6.06,16.94,5.77Z" transform="translate(0 -5.77)"/></svg>