<?xml version="1.0" encoding="utf-8"?>
<!-- Generator: Adobe Illustrator 26.0.1, SVG Export Plug-In . SVG Version: 6.00 Build 0)  -->
<svg version="1.1" id="Layer_1" xmlns="http://www.w3.org/2000/svg" xmlns:xlink="http://www.w3.org/1999/xlink" x="0px" y="0px"
	 viewBox="0 0 16 16" style="enable-background:new 0 0 16 16;" xml:space="preserve">
<g>
	<g>
		<path d="M3.7,15.8c-0.6,0-1-0.4-1-1V1.2c0-0.6,0.4-1,1-1s1,0.4,1,1v13.6C4.7,15.4,4.2,15.8,3.7,15.8z"/>
	</g>
	<g>
		<path d="M12.3,15.8c-0.6,0-1-0.4-1-1V1.2c0-0.6,0.4-1,1-1s1,0.4,1,1v13.6C13.3,15.4,12.9,15.8,12.3,15.8z"/>
	</g>
	<g>
		<path d="M12.2,8.5H3.8c-0.6,0-1-0.4-1-1s0.4-1,1-1h8.3c0.6,0,1,0.4,1,1S12.7,8.5,12.2,8.5z"/>
	</g>
</g>
</svg>
