<?xml version="1.0" encoding="utf-8"?>
<!-- Generator: Adobe Illustrator 26.0.1, SVG Export Plug-In . SVG Version: 6.00 Build 0)  -->
<svg version="1.1" id="Layer_1" xmlns="http://www.w3.org/2000/svg" xmlns:xlink="http://www.w3.org/1999/xlink" x="0px" y="0px"
	 viewBox="0 0 16 16" style="enable-background:new 0 0 16 16;" xml:space="preserve">
<g>
	<g>
		<path d="M13.5,15.9H2.5c-1.3,0-2.4-1.1-2.4-2.4V2.5c0-1.3,1.1-2.4,2.4-2.4h10.9c1.3,0,2.4,1.1,2.4,2.4v10.9
			C15.9,14.8,14.8,15.9,13.5,15.9z M2.5,1.8c-0.4,0-0.7,0.3-0.7,0.7v10.9c0,0.4,0.3,0.7,0.7,0.7h10.9c0.4,0,0.7-0.3,0.7-0.7V2.5
			c0-0.4-0.3-0.7-0.7-0.7H2.5z"/>
	</g>
	<g>
		<path d="M5.3,7.2c-1.1,0-1.9-0.9-1.9-1.9c0-1.1,0.9-1.9,1.9-1.9s1.9,0.9,1.9,1.9C7.2,6.3,6.3,7.2,5.3,7.2z M5.3,4.9
			C5,4.9,4.9,5,4.9,5.3c0,0.2,0.2,0.4,0.4,0.4s0.4-0.2,0.4-0.4C5.7,5,5.5,4.9,5.3,4.9z"/>
	</g>
	<g>
		<path d="M2.5,15.9c-0.2,0-0.4-0.1-0.6-0.3c-0.3-0.3-0.3-0.9,0-1.2l8.6-8.6c0.3-0.3,0.9-0.3,1.2,0l3.9,3.9c0.3,0.3,0.3,0.9,0,1.2
			c-0.3,0.3-0.9,0.3-1.2,0l-3.3-3.3l-8,8C3,15.8,2.7,15.9,2.5,15.9z"/>
	</g>
</g>
</svg>
