<svg width="16" height="16" viewBox="0 0 16 16" fill="none" xmlns="http://www.w3.org/2000/svg">
<path fill-rule="evenodd" clip-rule="evenodd" d="M16 4.79903C15.9998 4.65625 15.9615 4.51611 15.8889 4.39316C15.8163 4.2702 15.7121 4.16892 15.5872 4.09981L8.36944 0.0997284C8.25084 0.0343878 8.11764 0.00012207 7.98223 0.00012207C7.84683 0.00012207 7.71362 0.0343878 7.59502 0.0997284L0.412472 4.06781C0.287696 4.1369 0.18366 4.2381 0.111139 4.36091C0.0386173 4.48373 0.00024713 4.62369 1.1673e-06 4.76632C-0.000242438 4.90895 0.0376469 5.04905 0.109746 5.17211C0.181846 5.29517 0.285534 5.39672 0.410072 5.46624L7.62782 9.49833C7.74665 9.56509 7.88063 9.60023 8.01693 9.60037C8.15323 9.60051 8.28728 9.56565 8.40624 9.49913L15.5888 5.49904C15.7136 5.42966 15.8175 5.32816 15.8898 5.20507C15.9621 5.08198 16.0001 4.94178 16 4.79903ZM8.01823 7.88309L2.44771 4.77183L7.98143 1.71416L13.5527 4.80143L8.01823 7.88309ZM14.812 7.30068L7.99983 11.0848L1.18769 7.30068L0.410871 8.69911L7.61102 12.6992C7.72984 12.7652 7.86352 12.7998 7.99943 12.7998C8.13535 12.7998 8.26902 12.7652 8.38784 12.6992L15.588 8.69911L14.812 7.30068ZM7.99983 14.2848L14.812 10.5007L15.588 11.8992L8.38784 15.8993C8.26902 15.9652 8.13535 15.9999 7.99943 15.9999C7.86352 15.9999 7.72984 15.9652 7.61102 15.8993L0.410871 11.8992L1.18769 10.5007L7.99983 14.2848Z" fill="black"/>
</svg>
