<?xml version="1.0" encoding="utf-8"?>
<!-- Generator: Adobe Illustrator 26.0.1, SVG Export Plug-In . SVG Version: 6.00 Build 0)  -->
<svg version="1.1" id="Layer_1" xmlns="http://www.w3.org/2000/svg" xmlns:xlink="http://www.w3.org/1999/xlink" x="0px" y="0px"
	 viewBox="0 0 16 16" style="enable-background:new 0 0 16 16;" xml:space="preserve">
<g>
	<g>
		<path d="M7.5,11.5c-0.2,0-0.4-0.1-0.6-0.2L4.2,8.6c-0.3-0.3-0.3-0.9,0-1.2l2.7-2.7c0.3-0.3,0.9-0.3,1.2,0s0.3,0.9,0,1.2L6,8
			l2.1,2.1c0.3,0.3,0.3,0.9,0,1.2C7.9,11.4,7.7,11.5,7.5,11.5z"/>
	</g>
	<g>
		<path d="M11.2,8.8H4.8C4.3,8.8,4,8.5,4,8c0-0.5,0.4-0.9,0.8-0.9h6.4C11.7,7.1,12,7.5,12,8C12,8.5,11.7,8.8,11.2,8.8z"/>
	</g>
	<g>
		<path d="M8,15.9c-4.4,0-7.9-3.6-7.9-7.9S3.6,0.1,8,0.1s7.9,3.6,7.9,7.9S12.4,15.9,8,15.9z M8,1.6C4.5,1.6,1.6,4.5,1.6,8
			s2.9,6.4,6.4,6.4s6.4-2.9,6.4-6.4S11.5,1.6,8,1.6z"/>
	</g>
</g>
</svg>
