<?xml version="1.0" encoding="utf-8"?>
<!-- Generator: Adobe Illustrator 26.0.1, SVG Export Plug-In . SVG Version: 6.00 Build 0)  -->
<svg version="1.1" id="Layer_1" xmlns="http://www.w3.org/2000/svg" xmlns:xlink="http://www.w3.org/1999/xlink" x="0px" y="0px"
	 viewBox="0 0 16 16" style="enable-background:new 0 0 16 16;" xml:space="preserve">
<g>
	<g>
		<path d="M14.8,9H1.2c-0.6,0-1-0.4-1-1s0.5-1,1-1h13.7c0.6,0,1,0.4,1,1S15.4,9,14.8,9z"/>
	</g>
	<g>
		<path d="M14.8,3.9H1.2c-0.6,0-1-0.4-1-1s0.5-1,1-1h13.7c0.6,0,1,0.4,1,1S15.4,3.9,14.8,3.9z"/>
	</g>
	<g>
		<path d="M14.8,14.1H1.2c-0.6,0-1-0.4-1-1s0.5-1,1-1h13.7c0.6,0,1,0.4,1,1S15.4,14.1,14.8,14.1z"/>
	</g>
</g>
</svg>
