<?xml version="1.0" encoding="utf-8"?>
<!-- Generator: Adobe Illustrator 26.0.1, SVG Export Plug-In . SVG Version: 6.00 Build 0)  -->
<svg version="1.1" id="Layer_1" xmlns="http://www.w3.org/2000/svg" xmlns:xlink="http://www.w3.org/1999/xlink" x="0px" y="0px"
	 viewBox="0 0 16 16" style="enable-background:new 0 0 16 16;" xml:space="preserve">
<g>
	<g>
		<path d="M11,15.8H5c-1.1,0-2-1-2-2.2V2.4c0-1.2,0.9-2.2,2-2.2H11c1.1,0,2,1,2,2.2v11.2C13,14.8,12.1,15.8,11,15.8z M5,1.7
			C4.7,1.7,4.5,2,4.5,2.4v11.2c0,0.4,0.2,0.7,0.5,0.7H11c0.3,0,0.5-0.3,0.5-0.7V2.4c0-0.4-0.2-0.7-0.5-0.7H5z"/>
	</g>
	<g>
		<path d="M8,13.1c-0.6,0-1-0.4-1-1s0.4-1,1-1h0c0.6,0,1,0.4,1,1S8.6,13.1,8,13.1z"/>
	</g>
</g>
</svg>
