<?xml version="1.0" encoding="utf-8"?>
<!-- Generator: Adobe Illustrator 26.0.1, SVG Export Plug-In . SVG Version: 6.00 Build 0)  -->
<svg version="1.1" id="Layer_1" xmlns="http://www.w3.org/2000/svg" xmlns:xlink="http://www.w3.org/1999/xlink" x="0px" y="0px"
	 viewBox="0 0 16 16" style="enable-background:new 0 0 16 16;" xml:space="preserve">
<g>
	<g>
		<path d="M8,15.9c-4.4,0-7.9-3.5-7.9-7.9c0-4.4,3.6-7.9,7.9-7.9c4.4,0,7.9,3.6,7.9,7.9C15.9,12.4,12.4,15.9,8,15.9z M8,1.8
			C4.6,1.8,1.8,4.6,1.8,8c0,3.4,2.8,6.2,6.2,6.2c3.4,0,6.2-2.8,6.2-6.2C14.2,4.6,11.4,1.8,8,1.8z"/>
	</g>
	<g>
		<path d="M13,13.8c-0.2,0-0.4-0.1-0.6-0.2l-10-10c-0.3-0.3-0.3-0.9,0-1.2s0.9-0.3,1.2,0l10,10c0.3,0.3,0.3,0.9,0,1.2
			C13.4,13.8,13.2,13.8,13,13.8z"/>
	</g>
</g>
</svg>
