<?xml version="1.0" encoding="utf-8"?>
<!-- Generator: Adobe Illustrator 26.0.1, SVG Export Plug-In . SVG Version: 6.00 Build 0)  -->
<svg version="1.1" id="Layer_1" xmlns="http://www.w3.org/2000/svg" xmlns:xlink="http://www.w3.org/1999/xlink" x="0px" y="0px"
	 viewBox="0 0 16 16" style="enable-background:new 0 0 16 16;" xml:space="preserve">
<g>
	<g>
		<path d="M8,15.9c-4.4,0-7.9-3.5-7.9-7.9c0-4.4,3.5-7.9,7.9-7.9s7.9,3.5,7.9,7.9C15.9,12.4,12.4,15.9,8,15.9z M8,1.8
			C4.6,1.8,1.8,4.6,1.8,8s2.8,6.2,6.2,6.2s6.2-2.8,6.2-6.2S11.4,1.8,8,1.8z"/>
	</g>
	<g>
		<path d="M6.5,11.6c-0.2,0-0.3,0-0.5-0.1c-0.3-0.2-0.5-0.5-0.5-0.9V5.2c0-0.4,0.2-0.7,0.5-0.9s0.7-0.2,1,0.1l4,2.7
			c0.3,0.2,0.4,0.5,0.4,0.8s-0.2,0.6-0.4,0.8l-4,2.7C6.9,11.5,6.7,11.6,6.5,11.6z M7,6.2v3.5l2.6-1.7L7,6.2z"/>
	</g>
</g>
</svg>
