<?xml version="1.0" encoding="utf-8"?>
<!-- Generator: Adobe Illustrator 26.0.1, SVG Export Plug-In . SVG Version: 6.00 Build 0)  -->
<svg version="1.1" id="Layer_1" xmlns="http://www.w3.org/2000/svg" xmlns:xlink="http://www.w3.org/1999/xlink" x="0px" y="0px"
	 viewBox="0 0 16 16" style="enable-background:new 0 0 16 16;" xml:space="preserve">
<g>
	<g>
		<path d="M8,14c-5,0-7.7-5.4-7.8-5.6c-0.1-0.2-0.1-0.5,0-0.8C0.3,7.4,3,2,8,2c5,0,7.7,5.4,7.8,5.6c0.1,0.2,0.1,0.5,0,0.8
			C15.7,8.6,13,14,8,14z M1.9,8c0.7,1.1,2.8,4.3,6.1,4.3c3.2,0,5.4-3.2,6.1-4.3C13.4,6.9,11.2,3.7,8,3.7C4.8,3.7,2.6,6.9,1.9,8z"/>
	</g>
	<g>
		<path d="M8,10.8c-1.5,0-2.8-1.2-2.8-2.8c0-1.5,1.2-2.8,2.8-2.8s2.8,1.2,2.8,2.8C10.8,9.5,9.5,10.8,8,10.8z M8,6.9
			C7.4,6.9,6.9,7.4,6.9,8S7.4,9.1,8,9.1S9.1,8.6,9.1,8S8.6,6.9,8,6.9z"/>
	</g>
</g>
</svg>
