<?xml version="1.0" encoding="utf-8"?>
<!-- Generator: Adobe Illustrator 26.0.1, SVG Export Plug-In . SVG Version: 6.00 Build 0)  -->
<svg version="1.1" id="Layer_1" xmlns="http://www.w3.org/2000/svg" xmlns:xlink="http://www.w3.org/1999/xlink" x="0px" y="0px"
	 viewBox="0 0 16 16" style="enable-background:new 0 0 16 16;" xml:space="preserve">
<g>
	<path d="M14.9,0.1H1.1c-0.6,0-1,0.5-1,1v12.2c0,0.6,0.5,1.1,1,1.1h3.8c0.5,0,0.9-0.4,0.9-0.9l0,0c0-0.5-0.4-0.9-0.9-0.9H1.8V6.1
		h12.4v6.5h-3.1c-0.5,0-0.9,0.4-0.9,0.9l0,0c0,0.5,0.4,0.9,0.9,0.9h3.8c0.2,0,1-0.1,1-1.1V1.1C15.9,0.6,15.4,0.1,14.9,0.1z M1.8,4.2
		V2c0-0.1,0.1-0.2,0.2-0.2h12c0.1,0,0.2,0.1,0.2,0.2v2.1c0,0.1-0.1,0.2-0.2,0.2H2C1.9,4.3,1.8,4.3,1.8,4.2z"/>
</g>
<g>
	<path d="M11,11.5c-0.1,0.2-0.3,0.2-0.5,0.2s-0.4-0.1-0.5-0.2l-1.2-1.2v4.9C8.8,15.6,8.5,16,8,16c-0.4,0-0.8-0.3-0.8-0.8v-4.9
		L6,11.5c-0.3,0.3-0.8,0.3-1.1,0c-0.3-0.3-0.3-0.8,0-1.1L7.5,8c0.3-0.3,0.8-0.3,1.1,0l2.5,2.5C11.3,10.8,11.3,11.2,11,11.5z"/>
</g>
<g>
	<circle cx="3.5" cy="3.1" r="0.9"/>
</g>
<g>
	<circle cx="5.9" cy="3.1" r="0.9"/>
</g>
</svg>
