<svg width="21" height="16" viewBox="0 0 21 16" fill="none" xmlns="http://www.w3.org/2000/svg">
<path d="M10.8549 13.4644C11.3419 13.1387 11.8136 12.8255 12.2786 12.5104C15.1079 10.609 17.9367 8.7081 20.7648 6.8079C20.8482 6.75184 20.8731 6.72671 20.7706 6.65808C17.4868 4.45181 14.2042 2.24489 10.923 0.0373271C10.9086 0.0276617 10.8933 0.019931 10.8588 -0.000366211V4.02525C10.8588 4.22725 10.8588 4.22435 10.6574 4.23402C9.38814 4.29491 8.14185 4.48918 6.94062 4.92026C4.81139 5.68575 3.14329 7.02537 2.01109 9.01256C1.50217 9.9226 1.15867 10.917 0.996801 11.9489C0.887586 12.6097 0.835621 13.2788 0.841496 13.9486C0.841496 14.5885 0.841496 15.2283 0.841496 15.8682C0.841496 15.9648 0.861628 15.9967 0.96133 15.989C1.09938 15.9784 1.26331 16.0306 1.37069 15.9706C1.47806 15.9107 1.52791 15.7503 1.60077 15.6314C2.14147 14.7567 2.65532 13.8636 3.27175 13.0382C3.88818 12.2128 4.55543 11.4598 5.39331 10.8673C6.16793 10.3193 7.04224 9.98683 7.93573 9.7075C8.68361 9.47948 9.45624 9.34413 10.2366 9.30445C10.411 9.29382 10.5846 9.28899 10.7571 9.27739C10.8444 9.27739 10.8645 9.29672 10.8635 9.38274C10.8635 10.2062 10.8635 11.0258 10.8635 11.8542L10.8549 13.4644Z" fill="#020202"/>
</svg>
