<?xml version="1.0" encoding="utf-8"?>
<!-- Generator: Adobe Illustrator 26.0.1, SVG Export Plug-In . SVG Version: 6.00 Build 0)  -->
<svg version="1.1" id="Layer_1" xmlns="http://www.w3.org/2000/svg" xmlns:xlink="http://www.w3.org/1999/xlink" x="0px" y="0px"
	 viewBox="0 0 16 16" style="enable-background:new 0 0 16 16;" xml:space="preserve">
<g>
	<polygon points="7.4,2 7.4,11.8 10.8,9.8 13.2,8.5 15.9,6.9 	"/>
	<path d="M0.1,11.8c0,0.7,0.1,1.5,0.3,2.1C1.2,11,4,8.8,7.2,8.8c0.1,0,0.1,0,0.2,0v3l3.4-2l2.3-1.4C12,6.4,9.9,5,7.4,4.9
		c-0.1,0-0.2,0-0.3,0C3.2,4.9,0.1,8,0.1,11.8z"/>
	<path d="M7.4,8.8v3l3.4-2C9.8,9.2,8.7,8.8,7.4,8.8z"/>
</g>
</svg>
