<?xml version="1.0" encoding="utf-8"?>
<!-- Generator: Adobe Illustrator 26.0.1, SVG Export Plug-In . SVG Version: 6.00 Build 0)  -->
<svg version="1.1" id="Layer_1" xmlns="http://www.w3.org/2000/svg" xmlns:xlink="http://www.w3.org/1999/xlink" x="0px" y="0px"
	 viewBox="0 0 16 16" style="enable-background:new 0 0 16 16;" xml:space="preserve">
<g>
	<g>
		<path d="M15,7.6h-3.8c-0.5,0-0.8-0.4-0.8-0.9s0.4-0.9,0.8-0.9h3v-3C14.2,2.4,14.6,2,15,2s0.8,0.4,0.8,0.9v3.8
			C15.9,7.2,15.5,7.6,15,7.6z"/>
	</g>
	<g>
		<path d="M1,14c-0.5,0-0.9-0.4-0.9-0.8V9.3c0-0.5,0.4-0.8,0.9-0.8h3.8c0.5,0,0.9,0.4,0.9,0.8s-0.4,0.8-0.9,0.8h-3v3
			C1.8,13.6,1.4,14,1,14z"/>
	</g>
	<g>
		<path d="M8,14.6C8,14.6,8,14.6,8,14.6c-1.8,0-3.4-0.7-4.7-1.9l-3-2.8C0,9.6,0,9,0.3,8.7c0.3-0.3,0.9-0.4,1.2,0l3,2.8
			c0.9,0.9,2.2,1.5,3.5,1.5c0,0,0,0,0,0c1.3,0,2.5-0.5,3.5-1.4c0.5-0.5,0.9-1.1,1.2-1.8c0.2-0.4,0.6-0.7,1.1-0.5
			c0.4,0.2,0.7,0.6,0.5,1.1c-0.3,0.9-0.9,1.8-1.6,2.5C11.4,13.9,9.8,14.6,8,14.6z M15,7.6c-0.2,0-0.4-0.1-0.6-0.2l-3-2.8
			C11,4,10.3,3.6,9.6,3.4c-2.6-0.9-5.4,0.4-6.3,3C3.2,6.8,2.7,7,2.3,6.9C1.8,6.7,1.6,6.2,1.8,5.8c1.2-3.4,5-5.2,8.4-4
			c0.9,0.3,1.8,0.9,2.5,1.6l3,2.8C16,6.4,16,7,15.7,7.3C15.5,7.5,15.3,7.6,15,7.6z"/>
	</g>
</g>
</svg>
