<svg width="21" height="18" viewBox="0 0 21 18" fill="none" xmlns="http://www.w3.org/2000/svg">
<path d="M18.8398 0H5.83984C4.73684 0 3.83984 0.897 3.83984 2V4H2.83984C1.73684 4 0.839844 4.897 0.839844 6V16C0.839844 17.103 1.73684 18 2.83984 18H8.83984C9.94284 18 10.8398 17.103 10.8398 16H18.8398C19.9428 16 20.8398 15.103 20.8398 14V2C20.8398 0.897 19.9428 0 18.8398 0ZM8.83684 16H2.83984V6H8.83984L8.83684 16ZM18.8368 14H10.8398V6C10.8398 4.897 9.94284 4 8.83984 4H5.83984V2H18.8398L18.8368 14Z" fill="black"/>
</svg>
