<?xml version="1.0" encoding="utf-8"?>
<!-- Generator: Adobe Illustrator 26.0.1, SVG Export Plug-In . SVG Version: 6.00 Build 0)  -->
<svg version="1.1" id="Layer_1" xmlns="http://www.w3.org/2000/svg" xmlns:xlink="http://www.w3.org/1999/xlink" x="0px" y="0px"
	 viewBox="0 0 16 16" style="enable-background:new 0 0 16 16;" xml:space="preserve">
<g>
	<g>
		<path d="M14.9,13.1H7.1c-0.5,0-0.9-0.4-0.9-0.8s0.4-0.8,0.9-0.8h7.2V2.3h-10v2c0,0.5-0.4,0.9-0.9,0.9S2.5,4.8,2.5,4.3V1.6
			c0-0.6,0.5-1,1.1-1h11.3c0.6,0,1,0.5,1,1V12C15.9,12.6,15.4,13.1,14.9,13.1z"/>
	</g>
	<g>
		<path d="M6.7,15.4H1.1c-0.6,0-1.1-0.5-1.1-1V5.5c0-0.6,0.5-1.1,1.1-1.1h5.6c0.6,0,1,0.5,1,1.1v8.8C7.8,14.9,7.3,15.4,6.7,15.4z
			 M1.8,13.7h4.3V6.1H1.8V13.7z"/>
	</g>
</g>
</svg>
