<svg id="Layer_1" data-name="Layer 1" xmlns="http://www.w3.org/2000/svg" viewBox="0 0 21.18 23.6"><path d="M12.78,11.66,11.84,15l-2.16-.86-2.06,6,11.3-3.38Zm4.59-5.22,3.38,11.3L6.63,22,3.25,10.67Zm1-1.84L1.41,9.68,5.64,23.8l17-5.07ZM5.5,13.07a1.48,1.48,0,1,1,1.84,1A1.49,1.49,0,0,1,5.5,13.07Z" transform="translate(-1.41 -0.2)"/><path d="M12.14.2c.28.15.58.27.87.41.13.06.13.06.07.18l-.75,1.62a.35.35,0,0,1-.05.08l0,0,.11,0a7.88,7.88,0,0,1,2.39-.53,7.59,7.59,0,0,1,2.95.4,7.69,7.69,0,0,1,3.88,2.88,7.27,7.27,0,0,1,.76,1.33s0,0,0,0l0,.06s0,0,0,.08v0l0,0s0,0,0,0l.06.17-1,.35c-.05,0-.08,0-.11-.05a6.68,6.68,0,0,0-7.1-4.25,6.84,6.84,0,0,0-1.72.46.16.16,0,0,0,.09,0l1.65.77c.07,0,.08.06,0,.13-.13.27-.26.56-.39.84,0,.06,0,.08-.12.05L11,4a.57.57,0,0,1-.3-.82c.45-1,.91-1.94,1.36-2.92a.94.94,0,0,0,0-.09Z" transform="translate(-1.41 -0.2)"/></svg>