<svg id="Layer_1" data-name="Layer 1" xmlns="http://www.w3.org/2000/svg" viewBox="0 0 21.18 23.6"><path d="M5.08,16.75l11.3,3.38-2.06-6L12.16,15l-.94-3.36Zm15.67-6.08L17.37,22,3.25,17.74,6.63,6.44ZM1.41,18.73l17,5.07L22.59,9.68,5.64,4.6Zm15.25-4.67a1.48,1.48,0,1,1,1.84-1A1.48,1.48,0,0,1,16.66,14.06Z" transform="translate(-1.41 -0.2)"/><path d="M11.86.2c-.28.15-.58.27-.87.41-.13.06-.13.06-.07.18l.75,1.62a.35.35,0,0,0,.05.08l0,0-.11,0A7.88,7.88,0,0,0,9.2,1.94a7.59,7.59,0,0,0-2.95.4A7.69,7.69,0,0,0,2.37,5.22a7.27,7.27,0,0,0-.76,1.33s0,0,0,0l0,.06s0,0,0,.08v0l0,0s0,0,0,0l-.06.17,1,.35c.05,0,.08,0,.11-.05A6.68,6.68,0,0,1,9.59,3.1a6.84,6.84,0,0,1,1.72.46.16.16,0,0,1-.09,0l-1.65.77c-.07,0-.08.06,0,.13.13.27.26.56.39.84,0,.06,0,.08.12.05L13,4a.57.57,0,0,0,.3-.82c-.45-1-.91-1.94-1.36-2.92a.94.94,0,0,1,0-.09Z" transform="translate(-1.41 -0.2)"/></svg>