<?xml version="1.0" encoding="utf-8"?>
<!-- Generator: Adobe Illustrator 26.0.1, SVG Export Plug-In . SVG Version: 6.00 Build 0)  -->
<svg version="1.1" id="Layer_1" xmlns="http://www.w3.org/2000/svg" xmlns:xlink="http://www.w3.org/1999/xlink" x="0px" y="0px"
	 viewBox="0 0 16 16" style="enable-background:new 0 0 16 16;" xml:space="preserve">
<g>
	<g>
		<path d="M14.8,5H1.2c-0.7,0-1-0.5-1-0.9V1.2c0-0.4,0.3-0.9,1-0.9h13.5c0.7,0,1,0.5,1,0.9l0,3.1C15.7,4.5,15.5,5,14.8,5z M1.9,3.3
			h12.2V2H1.9V3.3z"/>
	</g>
	<g>
		<path d="M14.8,10.4H1.2c-0.7,0-1-0.5-1-0.9V6.5c0-0.4,0.3-0.9,1-0.9h13.5c0.7,0,1,0.5,1,0.9l0,3.1C15.7,9.9,15.5,10.4,14.8,10.4z
			 M1.9,8.7h12.2V7.3H1.9V8.7z"/>
	</g>
	<g>
		<path d="M14.8,15.7H1.2c-0.7,0-1-0.5-1-0.9v-2.9c0-0.4,0.3-0.9,1-0.9h13.5c0.7,0,1,0.5,1,0.9l0,3.1C15.7,15.2,15.5,15.7,14.8,15.7
			z M1.9,14h12.2v-1.3H1.9V14z"/>
	</g>
</g>
</svg>
