<?xml version="1.0" encoding="utf-8"?>
<!-- Generator: Adobe Illustrator 26.0.1, SVG Export Plug-In . SVG Version: 6.00 Build 0)  -->
<svg version="1.1" id="Layer_1" xmlns="http://www.w3.org/2000/svg" xmlns:xlink="http://www.w3.org/1999/xlink" x="0px" y="0px"
	 viewBox="0 0 16 16" style="enable-background:new 0 0 16 16;" xml:space="preserve">
<g>
	<g>
		<path d="M14.7,15.8H1.2c-0.6,0-1.1-0.5-1.1-1.1V1.2c0-0.6,0.5-1,1.1-1h9.9c0.2,0,0.4,0.1,0.6,0.2l3.9,3.9c0.2,0.2,0.2,0.4,0.2,0.6
			v9.9 M15,15.7L15,15.7L15,15.7z M1.9,14.1h12.3V5.3l-3.4-3.4H1.9V14.1z"/>
	</g>
	<g>
		<path d="M11.8,15.8c-0.5,0-0.9-0.4-0.9-0.9V9.7H4.8v5.2c0,0.5-0.4,0.9-0.9,0.9S3,15.4,3,14.9V9.7c0-1,0.8-1.8,1.8-1.8h6
			c1,0,1.8,0.8,1.8,1.8v5.2C12.7,15.4,12.3,15.8,11.8,15.8z"/>
	</g>
	<g>
		<polygon points="10.6,5.7 3.3,5.7 3.3,0.9 5,0.9 5,4 10.6,4 		"/>
	</g>
	<g>
		<polygon points="9,1.3 10.6,1.4 10.6,5.7 9,5.6 		"/>
	</g>
	<g>
		<rect x="4.9" y="1.2" width="1.7" height="4.3"/>
	</g>
</g>
<path d="M14.7,15.8c0,0,1.1,0.2,1.1-1l-0.5-1l-1.1,1.5L14.7,15.8z"/>
</svg>
