<svg width="19" height="18" viewBox="0 0 19 18" fill="none" xmlns="http://www.w3.org/2000/svg">
<path d="M2.8457 18H16.8457C17.3761 18 17.8848 17.7893 18.2599 17.4142C18.635 17.0392 18.8457 16.5305 18.8457 16V5.00002C18.8465 4.86841 18.8212 4.73795 18.7715 4.61611C18.7217 4.49427 18.6484 4.38346 18.5557 4.29002L14.5557 0.290017C14.4623 0.197335 14.3514 0.12401 14.2296 0.0742455C14.1078 0.0244809 13.9773 -0.000744179 13.8457 1.67143e-05H2.8457C2.31527 1.67143e-05 1.80656 0.21073 1.43149 0.585803C1.05642 0.960876 0.845703 1.46958 0.845703 2.00002V16C0.845703 16.5305 1.05642 17.0392 1.43149 17.4142C1.80656 17.7893 2.31527 18 2.8457 18ZM12.8457 16H6.8457V11H12.8457V16ZM10.8457 4.00002H8.8457V2.00002H10.8457V4.00002ZM2.8457 2.00002H4.8457V6.00002H12.8457V2.00002H13.4357L16.8457 5.41002V16H14.8457V11C14.8457 10.4696 14.635 9.96088 14.2599 9.5858C13.8848 9.21073 13.3761 9.00002 12.8457 9.00002H6.8457C6.31527 9.00002 5.80656 9.21073 5.43149 9.5858C5.05642 9.96088 4.8457 10.4696 4.8457 11V16H2.8457V2.00002Z" fill="black"/>
</svg>
