<svg width="13" height="13" viewBox="0 0 13 13" fill="none" xmlns="http://www.w3.org/2000/svg">
<path d="M5.66732 10.9994C6.85064 10.9991 7.99985 10.603 8.93198 9.87404L11.8627 12.8047L12.8053 11.862L9.87465 8.93137C10.604 7.99915 11.0004 6.84966 11.0007 5.66604C11.0007 2.72537 8.60798 0.332703 5.66732 0.332703C2.72665 0.332703 0.333984 2.72537 0.333984 5.66604C0.333984 8.6067 2.72665 10.9994 5.66732 10.9994ZM5.66732 1.66604C7.87332 1.66604 9.66732 3.46004 9.66732 5.66604C9.66732 7.87204 7.87332 9.66604 5.66732 9.66604C3.46132 9.66604 1.66732 7.87204 1.66732 5.66604C1.66732 3.46004 3.46132 1.66604 5.66732 1.66604Z" fill="black"/>
</svg>
