<svg width="19" height="20" viewBox="0 0 19 20" fill="none" xmlns="http://www.w3.org/2000/svg">
<path fill-rule="evenodd" clip-rule="evenodd" d="M1.26783 15.866L0.267829 14.136C0.00303391 13.6765 -0.0687136 13.1307 0.0683222 12.6184C0.205358 12.106 0.53999 11.669 0.998829 11.403L1.50383 11.111C1.39606 10.3739 1.39606 9.62508 1.50383 8.888L0.998829 8.596C0.539856 8.33042 0.205067 7.89352 0.0680041 7.38126C-0.0690592 6.86901 0.00281164 6.3233 0.267829 5.864L1.26683 4.135C1.79783 3.216 3.07383 2.872 3.99783 3.403L4.52683 3.709C5.10565 3.25459 5.74347 2.88084 6.42283 2.598V2C6.42283 0.897 7.31983 0 8.42283 0H10.4228C11.5258 0 12.4228 0.897 12.4228 2V2.598C13.1024 2.8808 13.7403 3.25491 14.3188 3.71L14.8478 3.404C15.7708 2.871 17.0478 3.216 17.5788 4.136L18.5778 5.865C18.8426 6.32436 18.9143 6.86998 18.7773 7.38216C18.6402 7.89433 18.3056 8.33123 17.8468 8.597L17.3418 8.889C17.4492 9.62645 17.4492 10.3756 17.3418 11.113L17.8468 11.405C18.3058 11.6706 18.6406 12.1075 18.7777 12.6197C18.9147 13.132 18.8428 13.6777 18.5778 14.137L17.5788 15.866C17.0458 16.785 15.7708 17.127 14.8478 16.597L14.3188 16.291C13.74 16.7454 13.1022 17.1192 12.4228 17.402V18C12.4228 19.103 11.5258 20 10.4228 20H8.42283C7.31983 20 6.42283 19.103 6.42283 18V17.402C5.74324 17.1192 5.10537 16.7451 4.52683 16.29L3.99783 16.596C3.07683 17.127 1.79883 16.783 1.26783 15.866ZM3.42283 10C3.42349 10.4646 3.48091 10.9273 3.59383 11.378C3.64631 11.5888 3.62874 11.8109 3.54376 12.0108C3.45878 12.2107 3.31102 12.3775 3.12283 12.486L1.99883 13.137L2.99883 14.866L4.14283 14.204C4.32922 14.095 4.54607 14.0498 4.76048 14.0753C4.97488 14.1007 5.17513 14.1954 5.33083 14.345C6.00761 14.9881 6.82333 15.4668 7.71483 15.744C7.91965 15.8065 8.09899 15.9332 8.22645 16.1053C8.3539 16.2774 8.42274 16.4858 8.42283 16.7V18H10.4248L10.4228 16.7C10.4229 16.4858 10.4918 16.2774 10.6192 16.1053C10.7467 15.9332 10.926 15.8065 11.1308 15.744C12.0225 15.4672 12.8383 14.9884 13.5148 14.345C13.6707 14.1958 13.8709 14.1013 14.0851 14.0757C14.2994 14.0501 14.5162 14.0948 14.7028 14.203L15.8478 14.864L16.8458 13.135L15.7228 12.486C15.5346 12.3775 15.3869 12.2107 15.3019 12.0108C15.2169 11.8109 15.1993 11.5888 15.2518 11.378C15.3648 10.925 15.4228 10.461 15.4228 10C15.4228 9.538 15.3648 9.074 15.2528 8.622C15.2003 8.41133 15.2177 8.18927 15.3025 7.98938C15.3873 7.78948 15.5348 7.62262 15.7228 7.514L16.8468 6.865L15.8468 5.136L14.7028 5.797C14.516 5.90473 14.2993 5.94911 14.0852 5.92352C13.8711 5.89792 13.671 5.80372 13.5148 5.655C12.838 5.0119 12.0223 4.53321 11.1308 4.256C10.926 4.19347 10.7467 4.06683 10.6192 3.89473C10.4918 3.72263 10.4229 3.51416 10.4228 3.3V2H8.42283V3.3C8.42274 3.51416 8.3539 3.72263 8.22645 3.89473C8.09899 4.06683 7.91965 4.19347 7.71483 4.256C6.82316 4.53281 6.00735 5.01156 5.33083 5.655C5.17483 5.80401 4.97471 5.89841 4.7605 5.92401C4.54629 5.94962 4.32955 5.90505 4.14283 5.797L2.99783 5.135L1.99983 6.864L3.12283 7.514C3.31096 7.6225 3.45861 7.78935 3.54341 7.98928C3.62822 8.18921 3.64557 8.41133 3.59283 8.622C3.48083 9.074 3.42283 9.538 3.42283 10ZM13.4219 10C13.4219 12.206 11.6279 14 9.42188 14C7.21587 14 5.42188 12.206 5.42188 10C5.42188 7.794 7.21587 6 9.42188 6C11.6279 6 13.4219 7.794 13.4219 10ZM11.4219 10C11.4219 8.916 10.5059 8 9.42188 8C8.33788 8 7.42188 8.916 7.42188 10C7.42188 11.084 8.33788 12 9.42188 12C10.5059 12 11.4219 11.084 11.4219 10Z" fill="black"/>
</svg>
