<?xml version="1.0" encoding="utf-8"?>
<!-- Generator: Adobe Illustrator 26.0.1, SVG Export Plug-In . SVG Version: 6.00 Build 0)  -->
<svg version="1.1" id="Layer_1" xmlns="http://www.w3.org/2000/svg" xmlns:xlink="http://www.w3.org/1999/xlink" x="0px" y="0px"
	 viewBox="0 0 16 16" style="enable-background:new 0 0 16 16;" xml:space="preserve">
<g>
	<g>
		<path d="M8,10.6c-1.4,0-2.6-1.1-2.6-2.6S6.6,5.4,8,5.4s2.5,1.1,2.5,2.5S9.4,10.6,8,10.6z M8,6.9c-0.6,0-1.1,0.5-1.1,1
			c0,0.6,0.5,1.1,1.1,1.1s1-0.5,1-1.1C9.1,7.4,8.6,6.9,8,6.9z"/>
	</g>
	<g>
		<path d="M8,16c-0.8,0-1.4-0.5-1.8-1.2l-0.4-1.3c0-0.1-0.1-0.1-0.3-0.1l-1,0.5c-0.7,0.3-1.5,0.2-2.1-0.4c-0.6-0.6-0.7-1.4-0.4-2.1
			l0.5-1.1c0,0,0-0.1,0-0.2L1.3,9.8C0.5,9.5,0.1,8.9,0,8.1c0-0.8,0.4-1.5,1.2-1.9l1.3-0.4c0.1,0,0.1-0.1,0.1-0.3l-0.5-1
			C1.7,3.8,1.9,3,2.4,2.4C3,1.9,3.8,1.7,4.5,2.1l1.1,0.5c0,0,0.1,0,0.2,0l0.5-1.3C6.5,0.5,7.1,0.1,7.9,0c0.8,0,1.5,0.4,1.9,1.2
			l0.4,1.3c0,0.1,0.1,0.1,0.3,0.1l1-0.5c0.7-0.3,1.5-0.2,2.1,0.4c0.6,0.6,0.7,1.4,0.4,2.1l-0.5,1.1c0,0,0,0.1,0,0.2l1.3,0.5
			c0.7,0.2,1.2,0.9,1.3,1.6c0,0.8-0.4,1.5-1.2,1.9l-1.3,0.4c-0.1,0-0.1,0.1-0.1,0.3l0.4,1c0.4,0.7,0.3,1.4-0.2,2
			c-0.5,0.6-1.4,0.8-2.2,0.5c0,0,0,0,0,0l-1.1-0.5c0,0-0.1,0-0.2,0l-0.5,1.3C9.5,15.5,8.9,15.9,8,16C8.1,16,8.1,16,8,16z M5.7,11.7
			c0.8,0,1.5,0.5,1.8,1.2l0.4,1.2c0,0.1,0.2,0.1,0.2,0.1c0,0,0.1,0,0.1-0.1L8.5,13c0.2-0.5,0.5-0.9,1-1.1c0.5-0.2,1.1-0.2,1.6,0
			l1.1,0.5c0.1,0,0.1,0,0.2,0c0,0,0-0.1,0-0.2l-0.5-1.1C11.5,9.9,12,8.9,13,8.5l1.2-0.4c0.1,0,0.1-0.2,0.1-0.2c0,0,0-0.1-0.1-0.1
			L13,7.5c-0.5-0.2-0.9-0.5-1.1-1c-0.2-0.5-0.2-1.1,0-1.6l0.5-1.1c0-0.1,0-0.1,0-0.1c0,0-0.1-0.1-0.1,0l-1.1,0.5
			C9.9,4.5,8.9,4,8.5,3L8.1,1.8C8.1,1.7,8,1.7,8,1.7c0,0-0.1,0-0.1,0.1L7.5,3C7.3,3.5,7,3.9,6.5,4.1C6,4.3,5.4,4.3,4.9,4.1L3.8,3.6
			c-0.1,0-0.1,0-0.1,0s-0.1,0.1,0,0.1l0.5,1.1C4.5,6.1,4,7.1,3,7.5L1.8,7.9C1.7,7.9,1.7,8,1.7,8c0,0,0,0.1,0.1,0.1L3,8.5
			c0.5,0.2,0.9,0.5,1.1,1c0.2,0.5,0.2,1.1,0,1.6l-0.5,1.1c0,0.1,0,0.1,0,0.1c0,0,0.1,0.1,0.1,0l1.1-0.5C5.2,11.8,5.4,11.7,5.7,11.7z
			"/>
	</g>
</g>
</svg>
