<svg id="Layer_1" data-name="Layer 1" xmlns="http://www.w3.org/2000/svg" viewBox="0 0 24 24.01"><path d="M6.27,7.86C4.4,6,2.81,4.51,1.29,3,.61,2.26-.71,1.57.47.42s1.76.16,2.43.81C4.48,2.79,6,4.39,7.85,6.25c0-1.07,0-1.74,0-2.42s.38-1.37,1.24-1.35a1.12,1.12,0,0,1,1.15,1.28c0,2,0,3.9,0,5.84,0,.55-.23.66-.72.66-1.94,0-3.89,0-5.83,0A1.13,1.13,0,0,1,2.47,9,1.14,1.14,0,0,1,3.74,7.86C4.43,7.84,5.12,7.86,6.27,7.86Z" transform="translate(0)"/><path d="M18.22,7.82c.7,0,1.4,0,2.1,0A1.13,1.13,0,0,1,21.55,9a1.08,1.08,0,0,1-1.12,1.15c-2.05,0-4.09,0-6.14,0-.53,0-.52-.31-.52-.68,0-1.9,0-3.79,0-5.69,0-.81.34-1.4,1.19-1.41s1.21.58,1.21,1.39V6.16l4.66-4.69c.35-.35.69-.72,1.06-1.06a1.13,1.13,0,0,1,1.72,0,1.13,1.13,0,0,1-.06,1.73C22.12,3.57,20.67,5,19.21,6.45a14,14,0,0,1-1.28,1Z" transform="translate(0)"/><path d="M5.81,16.19c-.72,0-1.45,0-2.17,0A1.12,1.12,0,0,1,2.44,15a1.09,1.09,0,0,1,1.15-1.13c2,0,4,0,6,0,.56,0,.65.24.65.72,0,1.94,0,3.89,0,5.83A1.12,1.12,0,0,1,9,21.57a1.13,1.13,0,0,1-1.18-1.26c0-.69,0-1.39,0-2.45L3.05,22.65c-.32.32-.62.65-1,1a1.12,1.12,0,0,1-1.72,0,1.12,1.12,0,0,1,.08-1.72Q2.6,19.7,4.78,17.55a11,11,0,0,1,1.3-.94Z" transform="translate(0)"/><path d="M17.77,16.18l5.36,5.27c.63.61,1.32,1.27.48,2.14s-1.51.21-2.14-.43l-5.29-5.33c0,1.05,0,1.77,0,2.49a1.19,1.19,0,1,1-2.38,0c0-1.94,0-3.89,0-5.83,0-.67.32-.7.83-.7,1.84,0,3.69,0,5.53,0,.81,0,1.4.32,1.42,1.17s-.55,1.22-1.37,1.23Z" transform="translate(0)"/></svg>