<?xml version="1.0" encoding="utf-8"?>
<!-- Generator: Adobe Illustrator 26.0.1, SVG Export Plug-In . SVG Version: 6.00 Build 0)  -->
<svg version="1.1" id="Layer_1" xmlns="http://www.w3.org/2000/svg" xmlns:xlink="http://www.w3.org/1999/xlink" x="0px" y="0px"
	 viewBox="0 0 16 16" style="enable-background:new 0 0 16 16;" xml:space="preserve">
<g>
	<g>
		<path d="M12.3,15.8H3.7c-1.3,0-2.3-1-2.3-2.2V2.5c0-1.2,1-2.2,2.3-2.2h8.6c1.3,0,2.3,1,2.3,2.2v11.1
			C14.6,14.8,13.6,15.8,12.3,15.8z M3.7,1.9c-0.3,0-0.6,0.2-0.6,0.5v11.1c0,0.3,0.3,0.5,0.6,0.5h8.6c0.3,0,0.6-0.2,0.6-0.5v-11
			c0-0.3-0.3-0.5-0.6-0.5H3.7V1.9z"/>
	</g>
	<g>
		<path d="M8,13.1c-0.6,0-1-0.4-1-1s0.4-1,1-1l0,0c0.6,0,1,0.4,1,1S8.6,13.1,8,13.1z"/>
	</g>
</g>
<path d="M3.7,2c0,0-0.6-0.1-0.6,0.5L2.7,2c0,0,0.6-0.5,0.6-0.5c0,0,0.9-0.2,0.9-0.2"/>
</svg>
