<?xml version="1.0" encoding="utf-8"?>
<!-- Generator: Adobe Illustrator 26.0.1, SVG Export Plug-In . SVG Version: 6.00 Build 0)  -->
<svg version="1.1" id="Layer_1" xmlns="http://www.w3.org/2000/svg" xmlns:xlink="http://www.w3.org/1999/xlink" x="0px" y="0px"
	 viewBox="0 0 16 16" style="enable-background:new 0 0 16 16;" xml:space="preserve">
<g>
	<g>
		<path d="M14.4,9H9.5C9.1,9,8.7,8.6,8.7,8.2s0.4-0.8,0.8-0.8h4.8c0.5,0,0.8,0.4,0.8,0.8S14.8,9,14.4,9z"/>
	</g>
	<g>
		<path d="M14.4,12.4H9.5c-0.5,0-0.8-0.4-0.8-0.8s0.4-0.8,0.8-0.8h4.8c0.5,0,0.8,0.4,0.8,0.8S14.8,12.4,14.4,12.4z"/>
	</g>
	<g>
		<path d="M14.4,15.8H9.5c-0.5,0-0.8-0.4-0.8-0.8s0.4-0.8,0.8-0.8h4.8c0.5,0,0.8,0.4,0.8,0.8S14.8,15.8,14.4,15.8z"/>
	</g>
	<g>
		<path d="M14.9,6.1H1.1c-0.6,0-1-0.4-1-0.9V1.1c0-0.5,0.4-0.9,1-0.9h13.8c0.6,0,1,0.4,1,0.9l0,4.2C15.9,5.5,15.7,6.1,14.9,6.1z
			 M1.8,4.4h12.4V1.9H1.8V4.4z"/>
	</g>
	<g>
		<path d="M6.9,15.8H1.7c-0.5,0-0.9-0.4-0.9-1V8.3c0-0.5,0.4-1,0.9-1h5.3c0.5,0,0.9,0.4,0.9,1v6.5C7.8,15.6,7.2,15.8,6.9,15.8z
			 M2.4,14.1h3.7l0-5.1H2.4V14.1z"/>
	</g>
</g>
</svg>
