<?xml version="1.0" encoding="utf-8"?>
<!-- Generator: Adobe Illustrator 26.0.1, SVG Export Plug-In . SVG Version: 6.00 Build 0)  -->
<svg version="1.1" id="Layer_1" xmlns="http://www.w3.org/2000/svg" xmlns:xlink="http://www.w3.org/1999/xlink" x="0px" y="0px"
	 viewBox="0 0 16 16" style="enable-background:new 0 0 16 16;" xml:space="preserve">
<g>
	<g>
		<path d="M15,4.5c-0.5,0-0.9-0.4-0.9-0.9V1.8H1.8v1.8c0,0.5-0.4,0.9-0.9,0.9S0.1,4.1,0.1,3.6V1c0-0.5,0.4-0.9,0.9-0.9H15
			c0.5,0,0.9,0.4,0.9,0.9v2.6C15.9,4.1,15.5,4.5,15,4.5z"/>
	</g>
	<g>
		<path d="M10.6,15.9H5.4c-0.5,0-0.9-0.4-0.9-0.9s0.4-0.9,0.9-0.9h5.3c0.5,0,0.9,0.4,0.9,0.9S11.1,15.9,10.6,15.9z"/>
	</g>
	<g>
		<path d="M8,15.9c-0.5,0-0.9-0.4-0.9-0.9V1c0-0.5,0.4-0.9,0.9-0.9S8.9,0.5,8.9,1V15C8.9,15.5,8.5,15.9,8,15.9z"/>
	</g>
</g>
</svg>
