<svg width="21" height="16" viewBox="0 0 21 16" fill="none" xmlns="http://www.w3.org/2000/svg">
<path d="M10.8287 13.4646C10.3417 13.1389 9.87 12.8257 9.40504 12.5106C6.57565 10.6091 3.7469 8.70829 0.918793 6.80808C0.835388 6.75202 0.810462 6.72689 0.913041 6.65827C4.19684 4.45199 7.47937 2.24507 10.7606 0.0375102C10.775 0.0278448 10.7903 0.0201141 10.8248 -0.000183105V4.02543C10.8248 4.22743 10.8248 4.22454 11.0262 4.2342C12.2955 4.29509 13.5417 4.48937 14.743 4.92044C16.8722 5.68594 18.5403 7.02555 19.6725 9.01274C20.1814 9.92278 20.5249 10.9172 20.6868 11.9491C20.796 12.6099 20.848 13.279 20.8421 13.9488C20.8421 14.5887 20.8421 15.2285 20.8421 15.8684C20.8421 15.965 20.822 15.9969 20.7223 15.9892C20.5842 15.9786 20.4203 16.0307 20.3129 15.9708C20.2055 15.9109 20.1557 15.7504 20.0828 15.6316C19.5421 14.7569 19.0283 13.8638 18.4118 13.0384C17.7954 12.2129 17.1282 11.46 16.2903 10.8675C15.5157 10.3195 14.6414 9.98701 13.7479 9.70768C13 9.47966 12.2274 9.34432 11.447 9.30464C11.2725 9.294 11.099 9.28917 10.9265 9.27757C10.8392 9.27757 10.8191 9.2969 10.82 9.38292C10.82 10.2064 10.82 11.026 10.82 11.8544L10.8287 13.4646Z" fill="#020202"/>
</svg>
