<?xml version="1.0" encoding="utf-8"?>
<!-- Generator: Adobe Illustrator 26.0.1, SVG Export Plug-In . SVG Version: 6.00 Build 0)  -->
<svg version="1.1" id="Layer_1" xmlns="http://www.w3.org/2000/svg" xmlns:xlink="http://www.w3.org/1999/xlink" x="0px" y="0px"
	 viewBox="0 0 16 16" style="enable-background:new 0 0 16 16;" xml:space="preserve">
<g>
	<polygon points="8.6,2 8.6,11.8 5.2,9.8 2.8,8.5 0.1,6.9 	"/>
	<path d="M15.9,11.8c0,0.7-0.1,1.5-0.3,2.1c-0.8-3-3.5-5.2-6.7-5.2c-0.1,0-0.1,0-0.2,0v3l-3.4-2L2.8,8.5C4,6.4,6.1,5,8.6,4.9
		c0.1,0,0.2,0,0.3,0C12.8,4.9,15.9,8,15.9,11.8z"/>
	<path d="M8.6,8.8v3l-3.4-2C6.2,9.2,7.3,8.8,8.6,8.8z"/>
</g>
</svg>
