<?xml version="1.0" encoding="utf-8"?>
<!-- Generator: Adobe Illustrator 26.0.1, SVG Export Plug-In . SVG Version: 6.00 Build 0)  -->
<svg version="1.1" id="Layer_1" xmlns="http://www.w3.org/2000/svg" xmlns:xlink="http://www.w3.org/1999/xlink" x="0px" y="0px"
	 viewBox="0 0 16 16" style="enable-background:new 0 0 16 16;" xml:space="preserve">
<g>
	<g>
		<path d="M13.5,15.9h-11c-1.3,0-2.4-1.1-2.4-2.4v-3.1c0-0.5,0.4-0.8,0.9-0.8s0.9,0.4,0.9,0.8v3.1c0,0.4,0.3,0.7,0.7,0.7h11
			c0.4,0,0.7-0.3,0.7-0.7v-3.1c0-0.5,0.4-0.8,0.8-0.8s0.8,0.4,0.8,0.8v3.1C15.9,14.8,14.8,15.9,13.5,15.9z"/>
	</g>
	<g>
		<path d="M4.1,5.7c-0.2,0-0.4-0.1-0.6-0.2c-0.3-0.3-0.3-0.9,0-1.2l3.9-3.9C7.7,0,8.3,0,8.6,0.3l3.9,3.9c0.3,0.3,0.3,0.9,0,1.2
			c-0.3,0.3-0.9,0.3-1.2,0L8,2.1L4.7,5.5C4.5,5.6,4.3,5.7,4.1,5.7z"/>
	</g>
	<g>
		<path d="M8,11.2c-0.5,0-0.9-0.4-0.9-0.8V0.9c0-0.5,0.4-0.9,0.9-0.9s0.9,0.4,0.9,0.9v9.4C8.9,10.8,8.5,11.2,8,11.2z"/>
	</g>
</g>
</svg>
