<?xml version="1.0" encoding="utf-8"?>
<!-- Generator: Adobe Illustrator 26.0.1, SVG Export Plug-In . SVG Version: 6.00 Build 0)  -->
<svg version="1.1" id="Layer_1" xmlns="http://www.w3.org/2000/svg" xmlns:xlink="http://www.w3.org/1999/xlink" x="0px" y="0px"
	 viewBox="0 0 16 16" style="enable-background:new 0 0 16 16;" xml:space="preserve">
<g>
	<rect x="2" y="9.5" width="1" height="2.3"/>
</g>
<g>
	<rect x="7.4" y="7.9" width="1" height="4.2"/>
</g>
<g>
	<rect x="12.9" y="9.5" width="0.9" height="2.3"/>
</g>
<g>
	<rect x="2" y="8.9" width="11.8" height="1"/>
</g>
<g>
	<path d="M10.9,8H5C4.5,8,4.1,7.6,4.1,7V1.3c0-0.5,0.4-1,1-1H11c0.5,0,1,0.4,1,1v5.6c0,0.2,0,0.3-0.1,0.5C11.7,7.8,11.4,8,10.9,8z
		 M5.7,6.3h4.5V2.1H5.7V6.3z"/>
</g>
<g>
	<path d="M4.3,15.5H0.9c-0.3,0-0.7-0.3-0.7-0.7v-3.2c0-0.3,0.3-0.7,0.7-0.7h3.3c0.3,0,0.7,0.3,0.7,0.7v3.2c0,0.1,0,0.2,0,0.3
		C4.9,15.4,4.5,15.5,4.3,15.5z M1.4,14.4h2.3v-2.2H1.4V14.4z"/>
</g>
<g>
	<path d="M15.2,15.5h-3.4c-0.3,0-0.7-0.3-0.7-0.7v-3.2c0-0.3,0.3-0.7,0.7-0.7h3.3c0.3,0,0.7,0.3,0.7,0.7v3.2c0,0.1,0,0.2,0,0.3
		C15.8,15.4,15.5,15.5,15.2,15.5z M12.2,14.4h2.3v-2.2h-2.3V14.4z"/>
</g>
<g>
	<path d="M9.7,15.5H6.3c-0.3,0-0.7-0.3-0.7-0.7v-3.2c0-0.3,0.3-0.7,0.7-0.7h3.3c0.3,0,0.7,0.3,0.7,0.7v3.2c0,0.1,0,0.2,0,0.3
		C10.3,15.4,10,15.5,9.7,15.5z M6.8,14.4h2.3v-2.2H6.8V14.4z"/>
</g>
</svg>
