<?xml version="1.0" encoding="utf-8"?>
<!-- Generator: Adobe Illustrator 25.0.0, SVG Export Plug-In . SVG Version: 6.00 Build 0)  -->
<svg version="1.1" id="Layer_1" xmlns="http://www.w3.org/2000/svg" xmlns:xlink="http://www.w3.org/1999/xlink" x="0px" y="0px"
	 viewBox="0 0 500 500" style="enable-background:new 0 0 500 500;" xml:space="preserve">
<style type="text/css">
	.st0{fill:#2C3E50;}
</style>
<path class="st0" d="M96.8,496.79c0-20.7-0.37-39.45,0.15-58.18c0.29-10.58,7.75-16.95,15.92-22.57
	c56.19-38.68,112.33-77.43,168.47-116.2c22.39-15.46,44.5-31.34,67.17-46.38c8.87-5.88,7.32-8.88-0.4-14.24
	c-76.54-53.06-152.68-106.7-229.46-159.42c-16.14-11.08-25.27-23.59-22.73-43.71c1.05-8.3,0.33-16.85,0.14-25.28
	c-0.18-8.06,2.33-9.74,9.18-4.88c18.13,12.86,36.46,25.45,54.68,38.18c79.79,55.77,159.6,111.52,239.36,167.34
	c26.89,18.82,28.04,49.61,1.38,68.83c-99.17,71.51-198.74,142.47-298.17,213.6C101.33,494.71,99.93,495.21,96.8,496.79z"/>
<path class="st0" d="M93.57,170.03c1.55-13.88-2.69-25.34,8.73-31.2c11.33-5.82,19.81,2.22,28.16,7.95
	c43.92,30.17,87.56,60.76,131.6,90.77c7.82,5.33,7.95,7.62,0,13c-34.84,23.6-37.91,23.97-72.4,0.46
	c-26.6-18.14-52.67-37.09-79.59-54.75C98.41,188.62,90.29,180.66,93.57,170.03z"/>
</svg>
