<?xml version="1.0" encoding="utf-8"?>
<!-- Generator: Adobe Illustrator 25.0.0, SVG Export Plug-In . SVG Version: 6.00 Build 0)  -->
<svg version="1.1" id="Layer_1" xmlns="http://www.w3.org/2000/svg" xmlns:xlink="http://www.w3.org/1999/xlink" x="0px" y="0px"
	 viewBox="0 0 500 500" style="enable-background:new 0 0 500 500;" xml:space="preserve">
<style type="text/css">
	.st0{fill:#2C3E50;}
</style>
<g>
	<path class="st0" d="M430.67,271.59c8.55,1.36,16.71,4.06,24.69,7.35c8.51,3.51,16.42,8.11,23.84,13.53
		c3.79,2.77,7.02,6.12,9.08,10.44c2.36,4.94,2.44,10.07,1.15,15.26c-1.64,6.6-4,12.97-6.42,19.31
		c-8.41,22.06-19.86,42.43-34.23,61.15c-17.92,23.34-39.35,42.84-64.27,58.52c-16.25,10.23-33.49,18.38-51.66,24.54
		c-14.77,5-29.92,8.46-45.38,10.61c-14.84,2.06-29.75,2.52-44.67,1.85c-20.52-0.92-40.61-4.54-60.26-10.59
		c-31.53-9.71-59.86-25.27-85.05-46.49c-24.12-20.32-43.61-44.42-58.48-72.27c-13.83-25.9-22.68-53.4-26.64-82.46
		c-1.33-9.77-2.19-19.59-2.08-29.48c0.08-7.49-0.11-14.99,0.53-22.47c1.2-14.02,3.42-27.87,6.87-41.52
		c4.81-19.08,11.91-37.27,21.11-54.64c8.42-15.89,18.51-30.66,30.25-44.3c9.13-10.61,19.01-20.49,29.76-29.44
		c13.26-11.05,27.59-20.56,42.91-28.54c12.14-6.32,24.69-11.69,37.74-15.85c16.3-5.2,32.94-8.79,49.97-10.59
		c11.56-1.23,23.16-1.71,34.76-1.22c14.85,0.63,29.58,2.46,44.08,5.84c13.94,3.25,27.58,7.45,40.79,13.03
		c13.27,5.61,25.97,12.3,38.08,20.09c13.52,8.7,25.96,18.73,37.53,29.9c17.92,17.3,32.81,36.86,44.75,58.69
		c7.79,14.24,14.03,29.14,18.87,44.63c0.89,2.86,1.71,5.76,1.9,8.77c0.45,7.08-2.2,12.93-7.22,17.82
		c-3.25,3.17-7.08,5.55-10.87,7.96c-11.93,7.57-24.86,12.68-38.68,15.59c-0.93,0.19-1.85,0.42-2.77,0.63
		c-0.13,0.01-0.25,0.02-0.38,0.03c-1.55-0.36-1.45-1.76-1.66-2.84c-1.05-5.44-2.58-10.74-4.3-15.99c-1.5-4.6-2.3-4.86-7.07-4.45
		c-19.07,1.63-37.71,0.33-55.11-8.68c-7.63-3.95-14.27-9.28-20.65-14.97c-9.19-8.2-18.35-16.44-29.17-22.53
		c-10.7-6.03-22.19-9.38-34.4-10.42c-11.2-0.95-22.43-0.72-33.61-0.34c-21,0.7-40.02,7.32-55.98,21.32
		c-15.47,13.58-24.64,30.77-28.01,51.06c-1.04,6.23-1.54,12.51-1.5,18.84c0.05,8.21-0.03,16.42,0.02,24.62
		c0.09,14.32,2.8,28.12,9.08,41.03c8.01,16.47,20.11,29.05,36.42,37.59c11.16,5.85,23.02,9.09,35.48,10.3
		c4.32,0.42,8.68,0.12,13.02,0.15c6.24,0.03,12.48,0.06,18.72,0c16.46-0.16,31.56-4.86,45.43-13.66
		c8.44-5.35,15.87-11.96,23.33-18.55c7.4-6.54,14.94-12.92,23.95-17.23c8.94-4.27,18.41-6.48,28.24-7.44
		c6.94-0.68,13.88-0.31,20.82-0.39c2.68-0.03,5.34,0.42,7.99,0.87c0.84,0.14,1.54,0.45,2.06,1.13c1.07,0.99,0.47,2.01,0.04,3.02
		c-2.75,6.48-6.09,12.65-9.64,18.72c-8.12,13.9-15.81,28.06-24.26,41.76c-11.79,19.11-27.59,34.17-47.25,45.12
		c-14.89,8.3-30.84,13.27-47.75,15.17c-3.04,0.34-6.11,0.65-9.2,0.64c-18.56-0.05-37.12,0.01-55.67-0.03
		c-29.85-0.08-56.38-9.65-79.64-28.25c-13.04-10.42-23.5-23.05-31.74-37.56c-8.03-14.13-16.27-28.15-24.31-42.28
		c-9.1-16-14.59-33.17-16.21-51.53c-1.91-21.78,1.13-42.8,9.84-62.92c3.55-8.2,8.09-15.88,12.57-23.6
		c6.69-11.54,13.24-23.15,20.01-34.64c8.1-13.76,18.61-25.44,31.07-35.38c13.07-10.41,27.66-17.94,43.72-22.51
		c8.88-2.53,17.93-4.29,27.22-4.69c20.84-0.91,41.69-0.7,62.51-0.26c23.63,0.5,45.42,7.73,65.3,20.63
		c18.82,12.21,33.18,28.44,44.04,47.97c7.17,12.9,14.68,25.6,22.07,38.38c2.37,4.1,4.36,8.41,6.46,12.65
		c1.31,2.63,2.18,3.17,5.06,2.61c11.37-2.22,21.9-6.55,31.6-12.87c2.63-1.71,2.94-2.8,1.84-6.06c-4.55-13.49-10.22-26.49-17.24-38.9
		c-7.64-13.52-16.73-26.01-26.97-37.66c-11.22-12.74-24.02-23.7-37.93-33.4c-16.56-11.54-34.4-20.57-53.46-27.15
		c-14.9-5.14-30.21-8.55-45.88-10.4c-10.45-1.24-20.93-1.82-31.42-1.35c-18.19,0.82-36.1,3.58-53.62,8.71
		c-17.3,5.06-33.68,12.22-49.22,21.3c-12.71,7.43-24.49,16.14-35.47,25.98c-13.6,12.2-25.34,25.98-35.41,41.17
		c-16.52,24.94-27.46,52.14-32.69,81.61c-1.86,10.49-2.95,21.05-3.35,31.72c-0.99,26.65,3.06,52.52,11.59,77.69
		c9.1,26.85,23.19,50.89,41.75,72.33c16.98,19.61,37.01,35.39,59.7,47.88c16.07,8.85,33.03,15.51,50.81,19.86
		c12.71,3.11,25.58,5.47,38.76,6.04c8.53,0.37,17.05,0.4,25.56,0.25c6.54-0.11,13.05-1.07,19.53-1.99
		c25.43-3.63,49.42-11.66,72.05-23.75c14.75-7.88,28.31-17.49,40.86-28.55c21.98-19.36,39.05-42.42,51.82-68.7
		c3.97-8.17,7.27-16.63,10.1-25.26c1.22-3.73,0.79-4.72-2.56-6.82c-9.74-6.08-20.17-10.43-31.47-12.65c-1.38-0.27-2.86-0.4-3.49-2
		c-0.93-0.63-0.71-1.43-0.4-2.3c2.42-6.84,4.53-13.77,5.88-20.91c0.14-0.73,0.53-1.25,1.07-1.7
		C430.16,271.64,430.4,271.57,430.67,271.59z"/>
	<path class="st0" d="M430.65,227.22c-0.08,1.75,0.38,3.43,0.58,5.15c0.65,5.62,1.23,11.25,1.21,16.92
		c-0.03,6.53-0.63,13.02-1.53,19.49c-0.13,0.93-0.16,1.87-0.24,2.81c-0.07,0.06-0.14,0.12-0.2,0.18c-1.29,1.03-2.74,0.6-4.15,0.4
		c-7.51-1.03-15.05-1.9-22.63-1.65c-14.57,0.48-28.94,2.24-42.71,7.44c-11.99,4.53-22.3,11.72-31.96,19.97
		c-7.85,6.7-15.2,14-23.89,19.71c-10.58,6.95-22.12,10.61-34.8,10.61c-8.13,0-16.27,0.13-24.4-0.03
		c-17.28-0.34-32.55-6.03-44.99-18.16c-9.86-9.62-15.44-21.61-17.47-35.21c-0.69-4.6-0.97-9.24-0.96-13.9
		c0.03-8.68-0.11-17.36,0.04-26.04c0.2-12.02,2.68-23.52,9.02-33.89c10.3-16.87,25.4-26.65,44.92-29.51
		c11.69-1.72,23.48-1.01,35.23-0.81c7.33,0.12,14.6,1.36,21.51,4.15c7.86,3.18,14.69,7.95,21.14,13.32
		c7.27,6.06,14.13,12.59,21.62,18.41c14.52,11.26,30.93,17.85,49.07,20.32c8.54,1.16,17.12,1.71,25.73,1.39
		c5.36-0.2,10.7-0.77,16-1.65c1.28-0.21,2.51-0.3,3.67,0.41C430.51,227.11,430.58,227.17,430.65,227.22z"/>
</g>
</svg>
