<?xml version="1.0" encoding="utf-8"?>
<!-- Generator: Adobe Illustrator 25.0.0, SVG Export Plug-In . SVG Version: 6.00 Build 0)  -->
<svg version="1.1" id="Layer_1" xmlns="http://www.w3.org/2000/svg" xmlns:xlink="http://www.w3.org/1999/xlink" x="0px" y="0px"
	 viewBox="0 0 500 500" style="enable-background:new 0 0 500 500;" xml:space="preserve">
<style type="text/css">
	.st0{fill:#2C3E50;}
</style>
<path class="st0" d="M265.17,205.45c-2-1.5-4.17-3.22-6.44-4.81c-47.8-33.62-95.64-67.19-143.38-100.9
	c-3.86-2.72-6.8-3.07-11.37-1.1c-18.43,7.94-36.11,5.97-51.46-7.24C37.47,78.45,32.03,61.58,36.97,42.25
	c4.94-19.36,17.92-31.4,37.28-35.74c33.81-7.57,64.28,22.42,57.91,56.59c-0.61,3.26,0.07,5.54,2.96,7.67
	c51.33,37.79,102.6,75.67,153.8,113.63c3.02,2.24,5.42,1.93,8.71,0.78c10.78-3.76,21.66-7.27,32.63-10.4c3-0.86,4.08-1.89,4.07-4.88
	c-0.08-17.13-0.13-34.27,0.04-51.4c0.04-3.52-1.81-4.87-4.43-6.35c-15.85-8.92-24.8-26.06-21.98-43.56
	c3.04-18.82,13.34-32.14,32.11-37.56c26.49-7.66,54.07,12.96,54.91,40.48c0.56,18.55-6.91,32.29-23.11,41.48
	c-1.7,0.96-3.32,3.74-3.36,5.7c-0.26,16.78,0.01,33.56-0.26,50.33c-0.07,4.43,1.88,5.79,5.65,6.49
	c18.73,3.45,35.68,11.01,50.69,22.68c27.53,21.4,43.57,49.34,47.81,84.08c7.44,60.85-32.37,118.77-92.26,133.42
	c-35.72,8.74-68.96,2.52-99.33-18.06c-4.75-3.22-7.35-3.23-11.37,0.99c-12.8,13.42-26.01,26.45-39.2,39.48
	c-2.61,2.58-3.7,4.88-2.95,8.75c3,15.32-2.12,28.04-14.48,37.18c-12.43,9.2-26.35,9.94-39.93,2.82
	c-13.72-7.19-20.23-19.28-19.86-34.78c0.53-22.26,22.57-39.79,44.26-34.87c5.42,1.23,8.65-0.04,12.34-3.89
	c12.6-13.12,25.48-25.98,38.5-38.69c3.18-3.11,3.33-5.24,0.8-8.86c-16.59-23.74-23.72-50.36-21.54-79.05
	c2.23-29.31,13.94-54.79,34.29-76.16c1.09-1.15,2.15-2.33,3.17-3.54C265.06,206.81,265.01,206.38,265.17,205.45z M350.55,362.37
	c36.38,0.08,66.2-29.4,66.37-65.6c0.18-36.72-29.38-66.43-65.7-67c-34.16-0.54-67.29,26.09-67.35,66.33
	C283.83,335.82,316.43,363.31,350.55,362.37z"/>
</svg>
