<?xml version="1.0" encoding="utf-8"?>
<!-- Generator: Adobe Illustrator 25.0.0, SVG Export Plug-In . SVG Version: 6.00 Build 0)  -->
<svg version="1.1" id="Layer_1" xmlns="http://www.w3.org/2000/svg" xmlns:xlink="http://www.w3.org/1999/xlink" x="0px" y="0px"
	 viewBox="0 0 500 500" style="enable-background:new 0 0 500 500;" xml:space="preserve">
<style type="text/css">
	.st0{fill:#2C3E50;}
</style>
<g>
	<path class="st0" d="M116.48,384.34c-7.89-0.27-15.5-1.61-22.74-4.43c-21.85-8.52-38.46-22.73-46.88-45.09
		c-6.09-16.18-5.65-32.67-0.66-49.11c0.32-1.06,0.68-2.11,1.07-3.3c-0.48-0.52-0.9-1.08-1.42-1.52c-4.13-3.47-8.19-7.02-12.44-10.35
		c-11.16-8.76-15.94-20.48-16.27-34.32c-0.32-13.55,3.03-26.4,7.69-38.96c7.33-19.77,17.68-37.94,29.53-55.29
		c23.97-35.12,52.47-66.1,85.59-92.8c14.77-11.9,30.37-22.55,47.45-30.93c10.07-4.94,20.45-9.05,31.54-11.01
		c11.08-1.95,22.07-2.1,32.62,2.65c4.12,1.85,7.81,4.33,11.04,7.5c7.35,7.19,14.74,14.34,22.11,21.5c0.43,0.42,0.91,0.8,1.55,1.36
		c2.95-1.23,5.95-2.42,8.9-3.72c13.62-6,27.65-10.71,42.29-13.48c13.79-2.6,27.65-3.56,41.54-0.89c10.16,1.95,19.5,5.71,26.97,13.2
		c6.45,6.47,9.82,14.37,10.61,23.39c0.97,11.11-1.51,21.63-5.79,31.8c-6.12,14.51-15.15,27.12-25.46,38.89
		c-1.54,1.76-3.13,3.47-4.78,5.31c0.44,0.58,0.81,1.17,1.27,1.68c10.18,11.13,16.05,24.33,18.93,39.01c1.3,6.61,1.92,13.26,1.98,20
		c0.08,9.86,0.41,19.72,0.64,29.83c3.81,1.1,7.57,2.26,11.37,3.27c11.13,2.97,21.32,7.79,30.49,14.83
		c11.63,8.91,16.95,24.62,11.17,40.29c-0.63,1.71-1.4,3.38-2.23,5.01c-0.79,1.53-1.74,2.98-2.48,4.22
		c2.37,7.44,4.67,14.69,7.04,22.14c1.5,0.53,3.39,0.99,5.08,1.85c5.56,2.85,8.9,7.61,10.81,13.42c1.74,5.3,1.88,10.72,1.43,16.27
		c-0.97,12.13-3.24,23.98-7.31,35.44c-6.53,18.42-16.37,34.96-29.1,49.76c-21.84,25.39-49.28,42.12-81.1,51.95
		c-13.33,4.12-26.98,6.71-40.88,8.09c-10.05,1-20.11,1.43-30.19,1.06c-42.43-1.55-81.44-13.44-115.74-39.04
		c-23.36-17.44-41.2-39.45-53.53-65.88C117.64,386.72,117.06,385.54,116.48,384.34z M434.93,342.86c-0.17,2.29-1.16,3.42-2.08,4.56
		c-3.6,4.45-7.76,8.34-12.29,11.83c-13.13,10.12-27.88,17.03-43.65,21.88c-14.65,4.5-29.65,6.89-44.98,7.53
		c-10.64,0.45-21.15-0.19-31.5-2.7c-8.05-1.95-15.73-4.86-22.54-9.73c-14.99-10.71-17.16-30.61-7.29-43.74
		c5.15-6.86,12.04-9.99,20.77-8.86c6.45,0.83,12.93,1.65,19.42,1.93c17.97,0.76,35.78-0.79,53.33-4.82
		c14.7-3.37,29.03-7.84,42.5-14.72c9.55-4.88,18.57-10.56,25.91-18.56c2.56-2.8,4.7-5.87,6.23-9.36c3.64-8.32,1.54-16.81-5.62-22.38
		c-7.25-5.65-15.41-9.33-24.37-11.41c-5.03-1.17-9.99-2.69-14.94-4.19c-3.99-1.2-6.15-4.15-7.03-8.1c-0.31-1.39-0.59-2.8-0.66-4.21
		c-0.5-9.86-0.84-19.72-1.43-29.57c-0.39-6.49-0.86-12.99-1.76-19.43c-0.84-6.07-2.57-12.01-6.64-16.82
		c-5.06-5.98-11.47-8.61-19.31-6.75c-5.27,1.25-9.7,4.06-13.7,7.65c-1.97,1.76-3.95,3.54-6.11,5.05
		c-9.25,6.48-19.61,9.24-30.84,8.58c-8.53-0.5-17.03-1.44-25.57-1.83c-4.95-0.23-10.05-0.38-14.89,0.48
		c-12.41,2.22-22.15,9.1-29.39,19.22c-11.75,16.43-13.22,34.35-6.51,53.09c3.24,9.04,8.86,16.66,15.08,23.85
		c3.33,3.85,6.78,7.59,10,11.53c3.38,4.14,3.17,6.98-0.33,11.08c-19.81,23.17-27.14,49.88-21.89,79.82
		c3.49,19.89,13.32,36.32,29.19,48.96c18.05,14.38,39,21.06,61.74,22.54c12.54,0.81,25.01-0.16,37.3-2.98
		c30.36-6.98,56.24-21.51,76.39-45.56c12.17-14.52,19.85-31.11,22.22-50.02c0.46-3.67,0.28-7.31-0.84-10.87
		c-0.99-3.15-3.01-5.3-6.29-6c-1.86-0.4-3.77-0.56-5.83-0.86c-1.56-8.69-3.63-17.3-7.71-25.46c-0.86,0.58-1.45,0.97-2.02,1.38
		c-12.54,8.81-25.93,16.02-40.29,21.42c-22.79,8.57-46.45,12.4-70.71,13.06c-10.61,0.29-21.13-0.7-31.65-1.88
		c-2.68-0.3-5.51-0.14-8.16,0.4c-4.2,0.86-6.31,3.97-7.36,7.87c0.37,0.28,0.51,0.45,0.69,0.51c12.48,4.18,25.29,6.84,38.39,8.03
		c11.28,1.02,22.57,0.93,33.83-0.47c0.7-0.09,1.47-0.23,2.12-0.05c0.57,0.16,1.2,0.68,1.43,1.2c0.13,0.28-0.42,1.11-0.85,1.34
		c-0.88,0.48-1.87,0.77-2.84,1.07c-14.24,4.45-28.78,5.02-43.48,3.34c-9.72-1.11-19.24-3.18-28.53-6.25
		c-0.62-0.2-1.32-0.16-2.14-0.25c0.64,3.77,2.2,6.79,4.62,9.38c2.68,2.87,5.95,4.88,9.46,6.59c9.24,4.49,19.18,6,29.25,6.66
		c16.25,1.06,32.29-0.58,48.09-4.59c22.56-5.72,43.56-15,63.13-27.56C432.79,344.17,433.61,343.68,434.93,342.86z M268.78,51.2
		c-2.15-2.34-3.93-4.44-5.87-6.37c-5.35-5.29-10.75-10.54-16.18-15.75c-1.87-1.8-4.16-2.85-6.75-3.29
		c-5.38-0.93-10.74-0.65-16.09,0.24c-8.68,1.45-16.92,4.32-24.91,7.9c-18.12,8.12-34.56,18.98-50.06,31.28
		c-36.98,29.34-67.65,64.22-91.67,104.88c-8.08,13.68-15.06,27.9-19.69,43.17c-2.37,7.82-4.03,15.77-3.84,23.99
		c0.18,8.19,2.19,15.69,8.75,21.31c1.31,1.12,2.44,2.45,3.74,3.6c2.65,2.35,5.35,4.63,8.15,7.04c0.61-0.69,1.03-1.1,1.38-1.56
		C64.8,255.48,77,248.09,91.6,244.49c1.91-0.47,2.9-1.33,3.59-3.13c5.61-14.85,12.23-29.25,19.77-43.22
		c14.03-26.02,30.99-49.92,51.69-71.09c9.69-9.92,20.38-18.67,31.19-27.34c19.57-15.68,40.14-29.87,61.58-42.83
		C262.44,55.03,265.48,53.2,268.78,51.2z M152.1,320.11c-0.27-2.6-0.62-7.26-1.25-11.88c-1.08-7.89-3.12-15.51-6.77-22.66
		c-8.48-16.58-26.41-28.12-47-23.49c-14.63,3.29-25.73,11.21-32.46,24.82c-3.21,6.48-4.77,13.39-5.17,20.55
		c-0.5,9.04,0.38,17.95,4.59,26.12c9.83,19.06,25.18,30.85,46.65,33.71c15.37,2.05,30.57-5.09,37.21-21.83
		C150.86,337.97,151.92,330.17,152.1,320.11z M299.79,92.59c-9.6,0.46-18.78,2.71-27.8,5.78c-9.14,3.11-17.66,7.52-26.6,12.85
		c0.09-1.68-0.07-2.67,0.23-3.48c1.33-3.51,2.78-6.97,4.21-10.44c0.36-0.87,0.77-1.72,1.18-2.65c-1.69-0.9-2.5,0.15-3.39,0.66
		c-19.7,11.2-37.07,25.34-52.57,41.82c-1.95,2.07-3.84,4.21-5.75,6.32c-0.67,0.74-0.82,1.41,0.03,1.71
		c6.47-3.86,12.61-7.87,19.07-11.28c6.55-3.45,13.28-6.63,20.16-9.33c6.78-2.67,13.77-4.95,20.83-6.75
		c7.06-1.81,14.29-3.12,21.52-4.08c7.24-0.96,14.57-1.58,21.88-1.68c7.41-0.1,14.85,0.37,22.23,1.05c7.2,0.66,14.35,1.91,21.61,2.92
		c-0.37-1.68-0.36-1.7-1.91-2.44c-12.62-6.01-25.91-9.46-39.86-10.34c-1.17-0.07-2.33-0.22-4.2-0.4
		C293.32,98.5,296.73,95.83,299.79,92.59z"/>
	<path class="st0" d="M372.34,236.81c-2.98,0-5.81-0.11-8.62,0.05c-1.23,0.07-1.89-0.4-2.53-1.25c-2.22-2.97-3.86-6.23-4.56-9.87
		c-1.02-5.37-2.48-10.7-2.29-16.23c0.05-1.3,0.26-2.62,0.55-3.9c1.38-5.89,8.92-6.69,12.14-3.12c0.88,0.97,1.77,2.02,2.3,3.2
		c4.2,9.27,6.11,18.88,3.9,29.03c-0.11,0.49-0.27,0.97-0.45,1.45C372.72,236.34,372.57,236.49,372.34,236.81z"/>
	<path class="st0" d="M285.83,232.19c10.71,0.48,19.61,3.66,25.98,12.11c0.71,0.94,1.27,2.08,1.57,3.21c0.32,1.21-0.42,2-1.71,1.83
		c-0.99-0.13-1.97-0.47-2.9-0.85c-2.62-1.08-5.21-2.26-7.82-3.37c-7.2-3.06-14.56-3.14-22.05-1.2c-4.61,1.19-9.26,2.22-13.89,3.32
		c-0.79,0.19-1.58,0.44-2.38,0.5c-1.58,0.12-2.58-1.04-1.98-2.51c0.48-1.19,1.27-2.32,2.15-3.26c4.84-5.14,10.91-7.97,17.79-9.16
		C282.49,232.49,284.42,232.36,285.83,232.19z"/>
	<path class="st0" d="M295.73,251.38c5.29,0.08,9.53,1.53,13.07,4.76c0.6,0.54,1.2,1.13,1.62,1.8c0.84,1.35,0.22,2.7-1.38,2.88
		c-1.09,0.12-2.24,0.04-3.34-0.15c-7.37-1.28-14.56-0.79-21.52,2.11c-1.02,0.43-2.11,0.82-3.19,0.95c-1.63,0.2-2.85-1.13-2.31-2.65
		c0.5-1.38,1.23-2.86,2.29-3.83C285.27,253.3,290.49,251.57,295.73,251.38z"/>
	<path class="st0" d="M354.14,268.23c-0.6,0.99-1.01,2.2-1.84,2.92c-2.56,2.21-5.49,2.96-8.76,1.57c-0.84-0.36-1.71-0.63-2.55-0.97
		c-3.44-1.39-5.16-5.31-3.89-8.82c1.3-3.57,5.1-5.43,8.67-3.88c2.1,0.91,4.04,2.32,5.82,3.79
		C353.12,264.1,353.83,265.96,354.14,268.23z"/>
	<path class="st0" d="M376.43,256.7c-0.03,3.63-1.07,6.07-3.42,7.84c-2.14,1.62-4.32,1.52-6.37-0.21
		c-4.05-3.41-4.14-10.91-0.18-14.43c2.4-2.13,5.05-2.05,7.24,0.32C375.56,252.24,376.51,254.65,376.43,256.7z"/>
	<path class="st0" d="M112.69,324.84c0.15-4.43,1.06-8.65,2.6-12.8c2.27-6.12,0.16-12.72-4.98-16.25c-4.74-3.26-13.1-2.92-17.43,0.9
		c-1.26,1.11-2.26,2.62-3.03,4.13c-1.23,2.44-2.09,5.07-3.27,7.53c-0.55,1.15-1.32,2.34-2.31,3.11c-1.88,1.48-3.93,0.62-4.19-1.78
		c-0.24-2.21-0.34-4.5-0.02-6.69c1.36-9.31,5.29-17.1,14.07-21.52c13.99-7.04,26.28,1.07,31.11,9.95c3.61,6.66,3.81,13.34,1.4,20.29
		c-1.1,3.16-2.38,6.26-3.52,9.41c-1,2.73-1.31,5.51-0.53,8.37c0.96,3.49,3.44,5.22,7.03,4.74c0.9-0.12,1.79-0.42,2.69-0.5
		c1.39-0.13,3.01-0.58,3.75,1.12c0.66,1.52-0.69,2.45-1.53,3.38c-3.15,3.49-7.19,4.08-11.46,2.89c-5.75-1.6-9.03-5.62-10.06-11.43
		C112.73,328.11,112.79,326.46,112.69,324.84z"/>
</g>
</svg>
