<?xml version="1.0" encoding="utf-8"?>
<!-- Generator: Adobe Illustrator 25.0.0, SVG Export Plug-In . SVG Version: 6.00 Build 0)  -->
<svg version="1.1" id="Layer_1" xmlns="http://www.w3.org/2000/svg" xmlns:xlink="http://www.w3.org/1999/xlink" x="0px" y="0px"
	 viewBox="0 0 500 500" style="enable-background:new 0 0 500 500;" xml:space="preserve">
<style type="text/css">
	.st0{fill:#2C3E50;}
</style>
<g>
	<path class="st0" d="M220.61,334.01c-9.16-4.23-18.29-8.52-27.49-12.67c-19.35-8.72-38.74-17.37-58.11-26.04
		c-1.13-0.51-2.29-0.94-3.66-1.5c-1.36,6.76-2.68,13.31-4.01,19.87c-0.19-0.01-0.39-0.02-0.58-0.03
		c-1.76-11.42-3.54-22.84-5.28-34.27c-2.86-18.72-5.84-37.43-8.42-56.19c-0.52-3.81,0.26-7.88,0.91-11.75
		c1.33-7.97,2.98-15.89,5.17-23.87c3.04,20.05,6.07,40.11,9.27,61.25c11.21-26.55,22.02-52.18,33.19-78.65
		c3.23,10.43,6.24,19.97,9.05,29.58c0.32,1.1-0.36,2.63-0.89,3.83c-11.93,27.02-23.91,54.01-35.85,81.02
		c-0.84,1.9-1.44,3.89-1.32,6.18c13.13-29.56,26.25-59.13,39.51-88.99c30.03,13.43,59.77,26.73,89.52,40.03
		c0.16-0.34,0.33-0.67,0.49-1.01c-1.02-0.47-2.04-0.95-3.07-1.41c-27.66-12.44-55.32-24.91-83.02-37.27
		c-2.59-1.15-4.15-2.59-4.95-5.43c-2.52-8.97-5.36-17.86-8.24-27.32c1.26,0.46,2.13,0.72,2.95,1.09
		c28.85,13.18,57.71,26.32,86.48,39.68c2,0.93,3.23,3.49,5.1,5.6c-0.59,0.14-0.2,0.1-0.2,0.04c0.35-5.72,4.37-6.3,8.94-6.9
		c22.8-3,45.57-6.24,68.35-9.38c8.27-1.14,16.55-2.25,25.57-3.47c-2.69,7.63-5.14,14.73-7.75,21.76c-0.25,0.69-1.43,1.35-2.26,1.46
		c-18.57,2.57-37.15,5.05-55.73,7.58c-10.65,1.45-21.3,2.93-31.94,4.41c-0.62,0.09-1.22,0.36-1.83,0.54
		c0.06,0.31,0.12,0.61,0.18,0.92c30.23-4.08,60.45-8.16,91.19-12.32c4.68,32.68,9.32,65.16,14.03,98.05
		c-33.43,4.67-66.42,9.27-99.83,13.94c-3.49-24.49-6.95-48.74-10.48-73.51c-0.64,0.89-1.12,1.38-1.39,1.97
		c-10.58,23.79-21.15,47.6-31.7,71.41c-0.24,0.55-0.28,1.18-0.41,1.78C221.61,334.01,221.11,334.01,220.61,334.01z M194.43,311.11
		c3.07-0.49,6.2-0.75,9.21-1.52c22.68-5.79,38.16-30.87,33.34-53.88c-6.21-29.67-39.43-41.81-63.31-23.03
		c-10.87,8.55-16.24,20.19-18.05,33.7C152.51,289.6,170.92,310.76,194.43,311.11z M324.23,281.71c0.31,1.7,0.59,3.02,0.8,4.36
		c1.25,7.88,2.38,15.77,3.77,23.62c0.8,4.54,3.56,7,7.38,7.21c6.49,0.36,10.05-4.09,8.99-11.05c-1.74-11.46-3.37-22.93-5.09-34.39
		c-1.7-11.34-3.32-22.69-5.22-33.99c-1.08-6.41-6.37-9.22-11.91-6.74c-3.37,1.51-5.16,5.22-4.56,9.8c0.53,4.08,1.23,8.13,1.8,12.21
		c0.67,4.74,1.28,9.49,1.94,14.35c-10.04,1.45-19.5,2.81-28.95,4.17c-0.23-0.88-0.35-1.23-0.41-1.58
		c-1.23-8.26-2.39-16.53-3.7-24.77c-0.92-5.78-4.47-8.88-9.19-8.27c-5.17,0.67-7.79,4.28-7.43,10.25c0.04,0.74,0.17,1.49,0.28,2.23
		c1.91,12.94,3.8,25.89,5.75,38.83c1.42,9.49,2.78,18.99,4.42,28.44c0.79,4.57,3.31,6.85,6.95,7.21c6.39,0.63,10.38-3.66,9.42-10.26
		c-1.31-8.97-2.72-17.93-4.15-27.33C304.82,284.57,314.29,283.18,324.23,281.71z"/>
	<path class="st0" d="M491.14,318.28c-4.75,4.51-9.5,9.01-14.73,13.97c-0.08-1.65-0.17-2.71-0.17-3.76
		c-0.01-34.29-0.04-68.57,0.09-102.85c0.01-1.99,0.97-4.35,2.26-5.9c3.98-4.78,8.34-9.25,12.55-13.85
		C491.14,243.35,491.14,280.82,491.14,318.28z"/>
	<path class="st0" d="M111.06,220.23c4.97,32.46,9.89,64.56,14.89,97.23c-33.21,5.18-66.33,10.34-99.82,15.56
		c-5.37-32.62-10.68-64.89-16.04-97.44C43.78,230.47,77.1,225.4,111.06,220.23z M59.98,304.16c0.75-2.18,1.05-3.92,1.89-5.32
		c2.95-4.91,5.95-9.8,9.18-14.53c4.57-6.7,9.66-13.05,13.95-19.92c4.88-7.81,6.06-16.54,4.25-25.58c-1.25-6.28-3.97-8.15-10.4-7.26
		c-4.21,0.58-8.39,1.29-12.58,2.03c-8.24,1.45-16.52,2.72-24.68,4.51c-5.54,1.22-7.55,4.37-6.76,9.03c0.69,4.08,3.68,6.29,8.96,5.93
		c4.22-0.29,8.4-1.15,12.59-1.82c5.49-0.87,10.96-1.79,17.53-2.86c-1.1,3.44-1.56,6.16-2.8,8.46c-1.59,2.94-3.83,5.52-5.75,8.29
		c-6.24,9-12.81,17.8-18.57,27.1c-3.36,5.42-4.7,11.86-3.98,18.35c1.1,9.89,4.06,12.03,13.9,10.46c8.88-1.42,17.77-2.77,26.62-4.39
		c4.89-0.9,9.76-2.04,14.5-3.52c3.31-1.03,4.96-3.75,4.51-7.31c-0.46-3.63-2.5-6.14-6.26-6.33c-3.58-0.19-7.24-0.07-10.79,0.45
		C77.07,301.13,68.88,302.65,59.98,304.16z"/>
	<path class="st0" d="M474.82,223.13c0,36.76,0,73.16,0,109.83c-34.5,0-68.84,0-103.6,0c0-8.44,0-16.86,0-25.28
		c-0.28-0.06-0.56-0.12-0.84-0.18c-0.94,2.46-1.87,4.93-2.81,7.39c-0.22,0.01-0.45,0.02-0.67,0.03c-0.56-3.59-1.17-7.18-1.69-10.78
		c-3.89-27.38-7.78-54.77-11.58-82.16c-0.23-1.63,0.06-3.46,0.58-5.04c1.97-6.02,4.14-11.97,7.07-17.97
		c3.03,23.89,6.07,47.79,9.1,71.68c0.25-0.01,0.5-0.02,0.75-0.03c0-15.77,0-31.54,0-47.5C405.86,223.13,440.12,223.13,474.82,223.13
		z M462.89,278.95c-0.33-2.97-0.54-5.95-1.02-8.89c-4.83-29.68-40.81-43.82-64.53-25.3c-12.22,9.54-16.69,22.43-16.04,37.62
		c0.92,21.21,18.25,38.48,39.49,38.91C444.48,321.77,462.64,303.41,462.89,278.95z"/>
	<path class="st0" d="M10.21,233.75c2.17-10.72,4.24-21.32,6.56-31.87c0.22-1,1.91-2.21,3.08-2.4c14.65-2.44,29.33-4.7,44-7.03
		c16.52-2.62,33.03-5.27,49.55-7.89c1.31-0.21,2.64-0.29,4.32-0.46c-2.15,11.32-4.16,22.18-6.36,33.01
		c-0.17,0.86-1.58,1.95-2.54,2.1c-32.57,5.01-65.16,9.92-97.75,14.83C10.97,234.04,10.85,233.96,10.21,233.75z"/>
	<path class="st0" d="M490.18,204.61c-5.07,5.66-9.74,10.95-14.53,16.13c-0.55,0.59-1.79,0.78-2.71,0.78
		c-33.04,0.03-66.09,0.02-99.13,0.01c-0.33,0-0.67-0.15-1.66-0.39c5.14-5.55,9.97-10.84,14.93-16.01c0.56-0.58,1.82-0.68,2.76-0.68
		c32.79-0.04,65.58-0.03,98.38-0.03C488.67,204.41,489.12,204.5,490.18,204.61z"/>
	<path class="st0" d="M220.54,262.64c-0.83,8.62-4.19,17.85-11.33,25.37c-6.98,7.35-15.64,8.84-24.59,4.65
		c-8.5-3.98-13.07-11.98-11.91-21.69c1.1-9.24,4.66-17.55,10.99-24.47c6.44-7.03,14.92-8.91,23.51-5.49
		C216.01,244.51,220.61,251.42,220.54,262.64z"/>
	<path class="st0" d="M445.06,278.29c-0.96,4.82-1.39,8.96-2.64,12.83c-3.08,9.55-10.35,14.7-20.23,14.87
		c-9.91,0.16-17.68-5.06-20.83-14.63c-3.02-9.17-2.96-18.46,0.96-27.41c3.62-8.27,10.23-12.23,19.27-12.35
		c9.2-0.11,16.16,3.71,19.71,12.17C443.29,268.5,443.94,273.79,445.06,278.29z"/>
</g>
</svg>
