<?xml version="1.0" encoding="utf-8"?>
<!-- Generator: Adobe Illustrator 26.0.1, SVG Export Plug-In . SVG Version: 6.00 Build 0)  -->
<svg version="1.1" id="Layer_1" xmlns="http://www.w3.org/2000/svg" xmlns:xlink="http://www.w3.org/1999/xlink" x="0px" y="0px"
	 viewBox="0 0 16 16" style="enable-background:new 0 0 16 16;" xml:space="preserve">
<g>
	<g>
		<path d="M15.3,6.4c-0.8-0.7-2-0.7-2.7,0L9.4,9.7L7,12.1l-1,3.7l3.7-1l2.8-2.8l2.9-2.8c0.4-0.4,0.6-0.8,0.6-1.4
			C15.9,7.2,15.7,6.7,15.3,6.4z M14.3,8l-3.6,3.6l-1.8,1.8l-0.8,0.2l0.2-0.8l2-2l1.2-1.2l2.2-2.2c0.2-0.2,0.4-0.2,0.6,0
			c0.1,0.1,0.1,0.2,0.1,0.3C14.4,7.8,14.4,7.9,14.3,8z"/>
	</g>
	<g>
		<path d="M11.5,9.6l-1.2,1.2c-0.2-0.4-0.6-0.8-1-1.2C8.5,9,7.5,8.5,6.4,8.5c-2.5,0-4.5,2-4.5,4.5c0,0.5-0.4,0.9-0.8,0.9
			c-0.5,0-0.9-0.4-0.9-0.9c0-2.5,1.4-4.6,3.5-5.6c0.8-0.4,1.8-0.6,2.8-0.6s1.9,0.2,2.8,0.7c0.5,0.2,1,0.6,1.5,1
			C10.9,8.8,11.3,9.2,11.5,9.6z"/>
		<path d="M12.5,11.9L11,13.4c-0.1-0.1-0.1-0.2-0.1-0.4c0-0.5-0.1-1-0.2-1.4l1.3-1.3C12.2,10.8,12.4,11.4,12.5,11.9z"/>
	</g>
	<g>
		<path d="M6.4,0.2c-2.3,0-4.1,1.9-4.1,4.1c0,1.2,0.5,2.3,1.4,3.1c0.7,0.7,1.7,1.1,2.8,1.1s2-0.4,2.8-1c0.9-0.8,1.4-1.9,1.4-3.1
			C10.5,2.1,8.6,0.2,6.4,0.2z M3.9,4.4C3.9,3,5,1.9,6.4,1.9c1.4,0,2.5,1.1,2.5,2.5c0,1.4-1.1,2.5-2.5,2.5C5,6.8,3.9,5.7,3.9,4.4z"/>
	</g>
</g>
</svg>
