<?xml version="1.0" encoding="utf-8"?>
<!-- Generator: Adobe Illustrator 26.0.1, SVG Export Plug-In . SVG Version: 6.00 Build 0)  -->
<svg version="1.1" id="Layer_1" xmlns="http://www.w3.org/2000/svg" xmlns:xlink="http://www.w3.org/1999/xlink" x="0px" y="0px"
	 viewBox="0 0 16 16" style="enable-background:new 0 0 16 16;" xml:space="preserve">
<g>
	<g>
		<path d="M13.4,15.8h-2.3c-0.5,0-0.8-0.4-0.8-0.8s0.4-0.8,0.8-0.8h2.3c0.4,0,0.7-0.3,0.7-0.7v-2.3c0-0.5,0.4-0.8,0.8-0.8
			s0.8,0.4,0.8,0.8v2.3C15.8,14.8,14.8,15.8,13.4,15.8z M4.9,15.8H2.6c-1.3,0-2.4-1.1-2.4-2.4v-2.3c0-0.5,0.4-0.8,0.9-0.8
			s0.9,0.4,0.9,0.8v2.3c0,0.4,0.3,0.7,0.7,0.7h2.3c0.5,0,0.9,0.4,0.9,0.8S5.4,15.8,4.9,15.8z M15,5.7c-0.5,0-0.8-0.4-0.8-0.9V2.6
			c0-0.4-0.3-0.7-0.7-0.7h-2.3c-0.5,0-0.8-0.4-0.8-0.9s0.4-0.9,0.8-0.9h2.3c1.3,0,2.4,1.1,2.4,2.4v2.3C15.8,5.4,15.5,5.7,15,5.7z
			 M1,5.7c-0.5,0-0.9-0.4-0.9-0.9V2.6c0-1.3,1.1-2.4,2.4-2.4h2.3c0.5,0,0.9,0.4,0.9,0.9S5.4,1.9,4.9,1.9H2.6c-0.4,0-0.7,0.3-0.7,0.7
			v2.3C1.9,5.4,1.5,5.7,1,5.7z"/>
	</g>
</g>
</svg>
