<?xml version="1.0" encoding="utf-8"?>
<!-- Generator: Adobe Illustrator 26.0.1, SVG Export Plug-In . SVG Version: 6.00 Build 0)  -->
<svg version="1.1" id="Layer_1" xmlns="http://www.w3.org/2000/svg" xmlns:xlink="http://www.w3.org/1999/xlink" x="0px" y="0px"
	 viewBox="0 0 16 16" style="enable-background:new 0 0 16 16;" xml:space="preserve">
<g>
	<path d="M8.8,1.2v13.6c0,0.5-0.4,0.9-0.8,0.9c-0.5,0-0.9-0.4-0.9-0.9V1.2c0-0.5,0.4-0.8,0.9-0.8C8.5,0.4,8.8,0.7,8.8,1.2z"/>
</g>
<g>
	<path d="M6.4,8c0,0.3-0.2,0.6-0.4,0.7l-4.6,2.7c-0.3,0.2-0.6,0.2-0.8,0c-0.3-0.2-0.4-0.4-0.4-0.7V5.3c0-0.3,0.2-0.6,0.4-0.7
		c0.3-0.2,0.6-0.2,0.8,0L6,7.3C6.3,7.4,6.4,7.7,6.4,8z M1.8,9.2l2-1.2l-2-1.2V9.2z"/>
</g>
<g>
	<path d="M15.9,5.3v5.3c0,0.3-0.2,0.6-0.4,0.7c-0.3,0.2-0.6,0.2-0.8,0L10,8.7c-0.5-0.3-0.5-1.2,0-1.5l4.6-2.7c0.3-0.2,0.6-0.2,0.8,0
		C15.7,4.8,15.9,5,15.9,5.3z M14.2,9.2V6.8l-2,1.2L14.2,9.2z"/>
</g>
</svg>
