<?xml version="1.0" encoding="utf-8"?>
<!-- Generator: Adobe Illustrator 26.0.1, SVG Export Plug-In . SVG Version: 6.00 Build 0)  -->
<svg version="1.1" id="Layer_1" xmlns="http://www.w3.org/2000/svg" xmlns:xlink="http://www.w3.org/1999/xlink" x="0px" y="0px"
	 viewBox="0 0 25.3 16" style="enable-background:new 0 0 25.3 16;" xml:space="preserve">
<g>
	<path d="M24.7,13.1v-4c0-2.1-0.8-4.3-4-4.3c-1.3,0-2.6,0.4-3.5,0.9L17.7,7c0.7-0.5,1.8-0.8,2.7-0.8c2.2,0,2.4,1.6,2.4,2.4v0.2
		c-4.1,0-6.3,1.4-6.3,3.9c0,1.5,1.1,3,3.2,3c1.5,0,2.6-0.7,3.2-1.6H23l0.2,1.3h1.7C24.7,14.9,24.7,14,24.7,13.1z M22.8,12.1
		c0,0.2,0,0.4-0.1,0.6c-0.3,0.9-1.2,1.8-2.6,1.8c-1,0-1.8-0.6-1.8-1.8c0-2,2.4-2.4,4.5-2.4V12.1z"/>
</g>
<g>
	<path d="M15.2,14H14c0-0.1-0.1-0.1-0.1-0.2c-0.8-2.2-1.7-4.4-2.5-6.6C10.6,5,9.7,2.9,8.9,0.8C8.7,0.2,8.4,0,7.9,0.2
		C7.5,0.3,7.4,0.6,7.3,0.8C5.7,5,4,9.1,2.4,13.2c-0.1,0.4-0.3,0.6-0.5,0.8H1.3c-0.4,0-0.7,0.3-0.7,0.7c0,0.4,0.3,0.7,0.7,0.7h4
		c0.4,0,0.7-0.3,0.7-0.7C6,14.3,5.7,14,5.3,14H3.9v-0.1c0.4-1,0.8-2,1.2-2.9c0-0.1,0.2-0.1,0.3-0.1H11c0.1,0,0.3,0.1,0.3,0.2
		c0.2,0.4,0.3,0.8,0.4,1.1c0.2,0.5,0.4,1.1,0.6,1.7V14h-1.1c-0.4,0-0.7,0.3-0.7,0.7c0,0.4,0.3,0.7,0.7,0.7h4c0.4,0,0.7-0.3,0.7-0.7
		C15.9,14.3,15.6,14,15.2,14z M5.7,9.3l2.4-6h0.1c0.8,2,1.5,4,2.3,6H5.7z"/>
</g>
</svg>
