<?xml version="1.0" encoding="utf-8"?>
<!-- Generator: Adobe Illustrator 26.0.1, SVG Export Plug-In . SVG Version: 6.00 Build 0)  -->
<svg version="1.1" id="Layer_1" xmlns="http://www.w3.org/2000/svg" xmlns:xlink="http://www.w3.org/1999/xlink" x="0px" y="0px"
	 viewBox="0 0 16 16" style="enable-background:new 0 0 16 16;" xml:space="preserve">
<g>
	<g>
		<path d="M3.1,11c-0.2,0-0.4-0.1-0.6-0.2L0.4,8.6C0,8.3,0,7.7,0.4,7.4l2.1-2.1C2.8,5,3.3,5,3.7,5.3s0.3,0.9,0,1.2L2.2,8l1.5,1.5
			c0.3,0.3,0.3,0.9,0,1.2C3.5,10.9,3.3,11,3.1,11z"/>
	</g>
	<g>
		<path d="M10.1,3.9c-0.2,0-0.4-0.1-0.6-0.2L8,2.2L6.5,3.7C6.2,4,5.6,4,5.3,3.7S5,2.8,5.3,2.5l2.1-2.1C7.7,0,8.3,0,8.6,0.4l2.1,2.1
			c0.3,0.3,0.3,0.9,0,1.2C10.5,3.8,10.3,3.9,10.1,3.9z"/>
	</g>
	<g>
		<path d="M8,15.9c-0.2,0-0.4-0.1-0.6-0.2l-2.1-2.1c-0.3-0.3-0.3-0.9,0-1.2c0.3-0.3,0.9-0.3,1.2,0L8,13.8l1.5-1.5
			c0.3-0.3,0.9-0.3,1.2,0c0.3,0.3,0.3,0.9,0,1.2l-2.1,2.1C8.4,15.8,8.2,15.9,8,15.9z"/>
	</g>
	<g>
		<path d="M12.9,11c-0.2,0-0.4-0.1-0.6-0.2c-0.3-0.3-0.3-0.9,0-1.2L13.8,8l-1.5-1.5c-0.3-0.3-0.3-0.9,0-1.2c0.3-0.3,0.9-0.3,1.2,0
			l2.1,2.1c0.2,0.2,0.2,0.4,0.2,0.6s-0.1,0.4-0.2,0.6l-2.1,2.1C13.4,10.9,13.1,11,12.9,11z"/>
	</g>
	<g>
		<path d="M15,8.8H1C0.5,8.8,0.1,8.5,0.1,8c0-0.5,0.4-0.9,0.9-0.9H15c0.5,0,0.8,0.4,0.8,0.9C15.9,8.5,15.5,8.8,15,8.8z"/>
	</g>
	<g>
		<path d="M8,15.9c-0.5,0-0.9-0.4-0.9-0.8V1c0-0.5,0.4-0.9,0.9-0.9S8.9,0.5,8.9,1V15C8.9,15.5,8.5,15.9,8,15.9z"/>
	</g>
</g>
</svg>
