<?xml version="1.0" encoding="utf-8"?>
<!-- Generator: Adobe Illustrator 26.0.1, SVG Export Plug-In . SVG Version: 6.00 Build 0)  -->
<svg version="1.1" id="Layer_1" xmlns="http://www.w3.org/2000/svg" xmlns:xlink="http://www.w3.org/1999/xlink" x="0px" y="0px"
	 viewBox="0 0 16 16" style="enable-background:new 0 0 16 16;" xml:space="preserve">
<g>
	<g>
		<path d="M8.1,9C7.9,8.9,7.7,8.8,7.4,8.8c-0.4,0-0.7,0.1-1,0.2c-0.6,0.3-1,1-1,1.7v3c0,1.1,0.9,2,2,2c1.1,0,2-0.9,2-2v-3
			C9.4,10,8.9,9.3,8.1,9z M7.9,13.9c0,0.3-0.2,0.5-0.5,0.5c-0.3,0-0.5-0.2-0.5-0.5v-3c0-0.3,0.2-0.5,0.5-0.5c0.3,0,0.5,0.2,0.5,0.5
			V13.9z"/>
	</g>
	<g>
		<g>
			<path d="M11.5,0.1H1.7c-0.6,0-1.1,0.5-1.1,1.1v2.6c0,0.2,0.1,0.5,0.2,0.7C1,4.7,1.3,4.9,1.7,4.9h9.9c0.6,0,1.1-0.5,1.1-1.1V1.2
				C12.6,0.6,12.1,0.1,11.5,0.1z M10.9,1.8v1.3H2.3V1.8H10.9z"/>
		</g>
	</g>
	<g>
		<g>
			<path d="M14.3,1.6H0.6v2.1c0,0.2,0.1,0.5,0.2,0.7V3.3h12.9v2.6H7.5C6.9,5.9,6.4,6.4,6.4,7v0.6h7.9c0.6,0,1.1-0.5,1.1-1.1V2.7
				C15.4,2.1,14.9,1.6,14.3,1.6z M10.9,3.2H2.3V1.8h8.7V3.2z"/>
		</g>
	</g>
	<g>
		<g>
			<path d="M7.5,5.9C6.9,5.9,6.4,6.4,6.4,7v3.8c0,0.4,0.2,0.7,0.5,0.9v-0.9c0-0.3,0.2-0.5,0.5-0.5c0.3,0,0.5,0.2,0.5,0.5v1.1h0.2
				V7.6h6.2c0.6,0,1.1-0.5,1.1-1.1V5.9H7.5z"/>
		</g>
	</g>
</g>
</svg>
