<?xml version="1.0" encoding="utf-8"?>
<!-- Generator: Adobe Illustrator 26.0.1, SVG Export Plug-In . SVG Version: 6.00 Build 0)  -->
<svg version="1.1" id="Layer_1" xmlns="http://www.w3.org/2000/svg" xmlns:xlink="http://www.w3.org/1999/xlink" x="0px" y="0px"
	 viewBox="0 0 16 16" style="enable-background:new 0 0 16 16;" xml:space="preserve">
<g>
	<g>
		<path d="M7.1,1v14c0,0.5,0.4,0.9,0.8,0.9c0.5,0,0.9-0.4,0.9-0.9V1c0-0.5-0.4-0.8-0.9-0.8C7.5,0.1,7.1,0.5,7.1,1z"/>
	</g>
	<g>
		<path d="M0.1,8c0,0.2,0.1,0.4,0.2,0.6c0.3,0.3,0.9,0.3,1.2,0L8,2.2l6.4,6.4c0.3,0.3,0.9,0.3,1.2,0s0.3-0.9,0-1.2l-7-7
			c-0.3-0.3-0.9-0.3-1.2,0l-7,7C0.2,7.6,0.1,7.8,0.1,8z"/>
	</g>
</g>
</svg>
